CastoroTitling-Regular.ufo
<glyph name="exclam" format="2">
  <advance width="281"/>
  <unicode hex="0021"/>
  <outline>
    <contour>
      <point x="201" y="669" type="line"/>
      <point x="201" y="695"/>
      <point x="183" y="711"/>
      <point x="153" y="711" type="curve" smooth="yes"/>
      <point x="122" y="711"/>
      <point x="104" y="695"/>
      <point x="104" y="668" type="curve"/>
      <point x="140" y="161" type="line"/>
      <point x="148" y="160"/>
      <point x="158" y="160"/>
      <point x="166" y="161" type="curve"/>
    </contour>
    <contour>
      <point x="100" y="45" type="curve" smooth="yes"/>
      <point x="100" y="15"/>
      <point x="123" y="-9"/>
      <point x="152" y="-9" type="curve" smooth="yes"/>
      <point x="185" y="-9"/>
      <point x="206" y="16"/>
      <point x="206" y="45" type="curve" smooth="yes"/>
      <point x="206" y="73"/>
      <point x="185" y="99"/>
      <point x="152" y="99" type="curve" smooth="yes"/>
      <point x="123" y="99"/>
      <point x="100" y="75"/>
    </contour>
  </outline>
</glyph>
<glyph name="numbersign" format="2">
  <advance width="559"/>
  <unicode hex="0023"/>
  <outline>
    <contour>
      <point x="477" y="236" type="line"/>
      <point x="477" y="281" type="line"/>
      <point x="50" y="281" type="line"/>
      <point x="50" y="236" type="line"/>
    </contour>
    <contour>
      <point x="150" y="75" type="line"/>
      <point x="285" y="626" type="line"/>
      <point x="240" y="626" type="line"/>
      <point x="102" y="75" type="line"/>
    </contour>
    <contour>
      <point x="509" y="421" type="line"/>
      <point x="509" y="466" type="line"/>
      <point x="81" y="466" type="line"/>
      <point x="81" y="421" type="line"/>
    </contour>
    <contour>
      <point x="319" y="75" type="line"/>
      <point x="454" y="626" type="line"/>
      <point x="409" y="626" type="line"/>
      <point x="271" y="75" type="line"/>
    </contour>
  </outline>
</glyph>
<glyph name="dollar" format="2">
  <advance width="520"/>
  <unicode hex="0024"/>
  <outline>
    <contour>
      <point x="256" y="410" type="line"/>
      <point x="196" y="450"/>
      <point x="152" y="491"/>
      <point x="152" y="561" type="curve" smooth="yes"/>
      <point x="152" y="631"/>
      <point x="196" y="671"/>
      <point x="273" y="671" type="curve" smooth="yes"/>
      <point x="302" y="671"/>
      <point x="337" y="665"/>
      <point x="363" y="643" type="curve" smooth="yes"/>
      <point x="383" y="626"/>
      <point x="400" y="598"/>
      <point x="408" y="553" type="curve"/>
      <point x="415" y="553"/>
      <point x="420" y="553"/>
      <point x="428" y="555" type="curve"/>
      <point x="420" y="690" type="line"/>
      <point x="410" y="689"/>
      <point x="404" y="689"/>
      <point x="401" y="689" type="curve" smooth="yes"/>
      <point x="387" y="689"/>
      <point x="372" y="690"/>
      <point x="345" y="693" type="curve" smooth="yes"/>
      <point x="317" y="696"/>
      <point x="299" y="699"/>
      <point x="276" y="699" type="curve" smooth="yes"/>
      <point x="162" y="699"/>
      <point x="80" y="630"/>
      <point x="80" y="528" type="curve" smooth="yes"/>
      <point x="80" y="428"/>
      <point x="157" y="379"/>
      <point x="256" y="315" type="curve"/>
    </contour>
    <contour>
      <point x="274" y="308" type="line"/>
      <point x="334" y="267"/>
      <point x="381" y="228"/>
      <point x="381" y="149" type="curve" smooth="yes"/>
      <point x="381" y="76"/>
      <point x="341" y="28"/>
      <point x="259" y="28" type="curve" smooth="yes"/>
      <point x="176" y="28"/>
      <point x="112" y="77"/>
      <point x="99" y="160" type="curve"/>
      <point x="92" y="160"/>
      <point x="87" y="160"/>
      <point x="80" y="159" type="curve"/>
      <point x="84" y="105"/>
      <point x="84" y="55"/>
      <point x="85" y="14" type="curve"/>
      <point x="101" y="14"/>
      <point x="132" y="12"/>
      <point x="170" y="8" type="curve" smooth="yes"/>
      <point x="217" y="3"/>
      <point x="231" y="0"/>
      <point x="256" y="0" type="curve" smooth="yes"/>
      <point x="388" y="0"/>
      <point x="450" y="86"/>
      <point x="450" y="178" type="curve" smooth="yes"/>
      <point x="450" y="284"/>
      <point x="368" y="344"/>
      <point x="275" y="402" type="curve"/>
    </contour>
    <contour>
      <point x="248" y="-82" type="line"/>
      <point x="260" y="-83"/>
      <point x="271" y="-83"/>
      <point x="282" y="-82" type="curve"/>
      <point x="282" y="781" type="line"/>
      <point x="271" y="782"/>
      <point x="260" y="782"/>
      <point x="248" y="781" type="curve"/>
    </contour>
  </outline>
</glyph>
<glyph name="quotesingle" format="2">
  <advance width="185"/>
  <unicode hex="0027"/>
  <outline>
    <contour>
      <point x="135" y="680" type="line"/>
      <point x="135" y="701"/>
      <point x="113" y="711"/>
      <point x="92" y="711" type="curve" smooth="yes"/>
      <point x="70" y="711"/>
      <point x="50" y="701"/>
      <point x="50" y="680" type="curve"/>
      <point x="83" y="490" type="line"/>
      <point x="100" y="490" type="line"/>
    </contour>
  </outline>
</glyph>
<glyph name="parenleft" format="2">
  <advance width="349"/>
  <unicode hex="0028"/>
  <outline>
    <contour>
      <point x="296" y="808" type="line"/>
      <point x="152" y="700"/>
      <point x="70" y="552"/>
      <point x="70" y="351" type="curve" smooth="yes"/>
      <point x="70" y="152"/>
      <point x="151" y="4"/>
      <point x="296" y="-110" type="curve"/>
      <point x="312" y="-95" type="line"/>
      <point x="208" y="-3"/>
      <point x="149" y="133"/>
      <point x="149" y="349" type="curve" smooth="yes"/>
      <point x="149" y="565"/>
      <point x="208" y="700"/>
      <point x="312" y="792" type="curve"/>
    </contour>
  </outline>
  <guideline angle="0" x="0" y="808"/>
  <guideline angle="0" x="0" y="-110"/>
</glyph>
<glyph name="hyphen" format="2">
  <advance width="340"/>
  <unicode hex="002D"/>
  <outline>
    <contour>
      <point x="309" y="329" type="line"/>
      <point x="310" y="348"/>
      <point x="310" y="368"/>
      <point x="309" y="386" type="curve"/>
      <point x="31" y="386" type="line"/>
      <point x="30" y="367"/>
      <point x="30" y="348"/>
      <point x="31" y="329" type="curve"/>
    </contour>
  </outline>
</glyph>
<glyph name="one" format="2">
  <advance width="380"/>
  <unicode hex="0031"/>
  <outline>
    <contour>
      <point x="80" y="-1" type="curve"/>
      <point x="112" y="-1"/>
      <point x="139" y="2"/>
      <point x="199" y="2" type="curve" smooth="yes"/>
      <point x="261" y="2"/>
      <point x="285" y="-1"/>
      <point x="313" y="-1" type="curve"/>
      <point x="314" y="8"/>
      <point x="314" y="10"/>
      <point x="313" y="19" type="curve"/>
      <point x="237" y="26"/>
      <point x="235" y="26"/>
      <point x="235" y="93" type="curve" smooth="yes"/>
      <point x="235" y="604" type="line" smooth="yes"/>
      <point x="235" y="648"/>
      <point x="242" y="680"/>
      <point x="254" y="696" type="curve"/>
      <point x="251" y="703"/>
      <point x="249" y="705"/>
      <point x="244" y="711" type="curve"/>
      <point x="179" y="683"/>
      <point x="132" y="666"/>
      <point x="55" y="646" type="curve"/>
      <point x="55" y="637"/>
      <point x="56" y="634"/>
      <point x="59" y="625" type="curve"/>
      <point x="94" y="632"/>
      <point x="121" y="638"/>
      <point x="132" y="638" type="curve" smooth="yes"/>
      <point x="153" y="638"/>
      <point x="155" y="629"/>
      <point x="155" y="603" type="curve" smooth="yes"/>
      <point x="155" y="85" type="line" smooth="yes"/>
      <point x="155" y="29"/>
      <point x="154" y="26"/>
      <point x="80" y="19" type="curve"/>
      <point x="79" y="11"/>
      <point x="79" y="8"/>
    </contour>
  </outline>
</glyph>
<glyph name="four" format="2">
  <advance width="572"/>
  <unicode hex="0034"/>
  <outline>
    <contour>
      <point x="390" y="-3" type="curve" smooth="yes"/>
      <point x="403" y="-3"/>
      <point x="417" y="-3"/>
      <point x="430" y="-2" type="curve"/>
      <point x="430" y="632" type="line" smooth="yes"/>
      <point x="430" y="647"/>
      <point x="430" y="663"/>
      <point x="431" y="703" type="curve"/>
      <point x="414" y="707"/>
      <point x="394" y="708"/>
      <point x="375" y="708" type="curve"/>
      <point x="285" y="588"/>
      <point x="120" y="363"/>
      <point x="35" y="238" type="curve"/>
      <point x="35" y="225"/>
      <point x="35" y="204"/>
      <point x="37" y="190" type="curve"/>
      <point x="528" y="190" type="line"/>
      <point x="530" y="209"/>
      <point x="532" y="234"/>
      <point x="532" y="255" type="curve"/>
      <point x="90" y="255" type="line"/>
      <point x="150" y="346"/>
      <point x="285" y="527"/>
      <point x="350" y="616" type="curve"/>
      <point x="350" y="-2" type="line"/>
      <point x="362" y="-3"/>
      <point x="377" y="-3"/>
    </contour>
  </outline>
</glyph>
<glyph name="five" format="2">
  <advance width="553"/>
  <unicode hex="0035"/>
  <outline>
    <contour>
      <point x="151" y="699" type="line"/>
      <point x="99" y="373" type="line"/>
      <point x="104" y="370" type="line"/>
      <point x="142" y="379"/>
      <point x="186" y="381"/>
      <point x="209" y="381" type="curve" smooth="yes"/>
      <point x="357" y="381"/>
      <point x="404" y="298"/>
      <point x="404" y="213" type="curve" smooth="yes"/>
      <point x="404" y="106"/>
      <point x="329" y="16"/>
      <point x="213" y="16" type="curve" smooth="yes"/>
      <point x="192" y="16"/>
      <point x="171" y="19"/>
      <point x="149" y="26" type="curve"/>
      <point x="175" y="12" type="line"/>
      <point x="161" y="79"/>
      <point x="130" y="113"/>
      <point x="94" y="113" type="curve" smooth="yes"/>
      <point x="70" y="113"/>
      <point x="50" y="98"/>
      <point x="50" y="73" type="curve" smooth="yes"/>
      <point x="50" y="23"/>
      <point x="128" y="-12"/>
      <point x="215" y="-12" type="curve" smooth="yes"/>
      <point x="345" y="-12"/>
      <point x="483" y="66"/>
      <point x="483" y="234" type="curve" smooth="yes"/>
      <point x="483" y="357"/>
      <point x="409" y="452"/>
      <point x="235" y="452" type="curve" smooth="yes"/>
      <point x="204" y="452"/>
      <point x="171" y="449"/>
      <point x="136" y="444" type="curve"/>
      <point x="143" y="437" type="line"/>
      <point x="176" y="636" type="line"/>
      <point x="167" y="626" type="line"/>
      <point x="452" y="625" type="line"/>
      <point x="458" y="647"/>
      <point x="464" y="678"/>
      <point x="467" y="702" type="curve"/>
    </contour>
  </outline>
</glyph>
<glyph name="nine" format="2">
  <advance width="577"/>
  <unicode hex="0039"/>
  <outline>
    <contour>
      <point x="281" y="711" type="curve" smooth="yes"/>
      <point x="167" y="711"/>
      <point x="55" y="639"/>
      <point x="55" y="486" type="curve" smooth="yes"/>
      <point x="55" y="340"/>
      <point x="158" y="277"/>
      <point x="265" y="277" type="curve" smooth="yes"/>
      <point x="320" y="277"/>
      <point x="379" y="294"/>
      <point x="424" y="326" type="curve"/>
      <point x="430" y="361" type="line"/>
      <point x="388" y="331"/>
      <point x="343" y="316"/>
      <point x="302" y="316" type="curve" smooth="yes"/>
      <point x="220" y="316"/>
      <point x="144" y="376"/>
      <point x="144" y="512" type="curve" smooth="yes"/>
      <point x="144" y="640"/>
      <point x="211" y="682"/>
      <point x="273" y="682" type="curve" smooth="yes"/>
      <point x="349" y="682"/>
      <point x="428" y="620"/>
      <point x="428" y="416" type="curve" smooth="yes"/>
      <point x="428" y="195"/>
      <point x="336" y="17"/>
      <point x="133" y="17" type="curve" smooth="yes"/>
      <point x="118" y="17"/>
      <point x="106" y="18"/>
      <point x="99" y="19" type="curve"/>
      <point x="97" y="11"/>
      <point x="96" y="0"/>
      <point x="96" y="-10" type="curve"/>
      <point x="108" y="-12"/>
      <point x="126" y="-12"/>
      <point x="130" y="-12" type="curve" smooth="yes"/>
      <point x="392" y="-12"/>
      <point x="517" y="204"/>
      <point x="517" y="421" type="curve" smooth="yes"/>
      <point x="517" y="630"/>
      <point x="401" y="711"/>
    </contour>
  </outline>
</glyph>
<glyph name="less" format="2">
  <advance width="509"/>
  <unicode hex="003C"/>
  <outline>
    <contour>
      <point x="54" y="365" type="line"/>
      <point x="52" y="354"/>
      <point x="52" y="342"/>
      <point x="54" y="331" type="curve"/>
      <point x="441" y="151" type="line"/>
      <point x="447" y="163"/>
      <point x="455" y="178"/>
      <point x="460" y="191" type="curve"/>
      <point x="112" y="349" type="line"/>
      <point x="112" y="346" type="line"/>
      <point x="460" y="505" type="line"/>
      <point x="456" y="517"/>
      <point x="448" y="533"/>
      <point x="441" y="545" type="curve"/>
    </contour>
  </outline>
</glyph>
<glyph name="question" format="2">
  <advance width="408"/>
  <unicode hex="003F"/>
  <outline>
    <contour>
      <point x="144" y="161" type="line"/>
      <point x="152" y="160"/>
      <point x="162" y="160"/>
      <point x="170" y="161" type="curve"/>
      <point x="181" y="290" type="line"/>
      <point x="169" y="280" type="line"/>
      <point x="302" y="277"/>
      <point x="358" y="327"/>
      <point x="358" y="428" type="curve" smooth="yes"/>
      <point x="358" y="484"/>
      <point x="341" y="531"/>
      <point x="320" y="569" type="curve" smooth="yes"/>
      <point x="277" y="647"/>
      <point x="200" y="711"/>
      <point x="131" y="711" type="curve" smooth="yes"/>
      <point x="93" y="711"/>
      <point x="65" y="691"/>
      <point x="65" y="664" type="curve" smooth="yes"/>
      <point x="65" y="640"/>
      <point x="88" y="623"/>
      <point x="118" y="623" type="curve" smooth="yes"/>
      <point x="139" y="623"/>
      <point x="166" y="632"/>
      <point x="193" y="651" type="curve"/>
      <point x="174" y="657" type="line"/>
      <point x="262" y="620"/>
      <point x="315" y="535"/>
      <point x="315" y="448" type="curve" smooth="yes"/>
      <point x="315" y="385"/>
      <point x="287" y="352"/>
      <point x="152" y="352" type="curve"/>
      <point x="150" y="352"/>
      <point x="143" y="352"/>
      <point x="122" y="353" type="curve"/>
    </contour>
    <contour>
      <point x="104" y="45" type="curve" smooth="yes"/>
      <point x="104" y="15"/>
      <point x="126" y="-9"/>
      <point x="157" y="-9" type="curve" smooth="yes"/>
      <point x="188" y="-9"/>
      <point x="210" y="16"/>
      <point x="210" y="45" type="curve" smooth="yes"/>
      <point x="210" y="73"/>
      <point x="189" y="99"/>
      <point x="157" y="99" type="curve" smooth="yes"/>
      <point x="126" y="99"/>
      <point x="104" y="74"/>
    </contour>
  </outline>
</glyph>
<glyph name="B" format="2">
  <advance width="627"/>
  <unicode hex="0042"/>
  <unicode hex="0062"/>
  <outline>
    <contour>
      <point x="313" y="-3" type="curve" smooth="yes"/>
      <point x="354" y="-3"/>
      <point x="398" y="1"/>
      <point x="428" y="11" type="curve" smooth="yes"/>
      <point x="504" y="35"/>
      <point x="562" y="101"/>
      <point x="562" y="190" type="curve" smooth="yes"/>
      <point x="562" y="297"/>
      <point x="480" y="361"/>
      <point x="395" y="374" type="curve"/>
      <point x="395" y="376" type="line"/>
      <point x="468" y="406"/>
      <point x="523" y="456"/>
      <point x="523" y="546" type="curve" smooth="yes"/>
      <point x="523" y="647"/>
      <point x="453" y="701"/>
      <point x="314" y="701" type="curve" smooth="yes"/>
      <point x="287" y="701"/>
      <point x="230" y="699"/>
      <point x="199" y="699" type="curve" smooth="yes"/>
      <point x="167" y="699"/>
      <point x="116" y="701"/>
      <point x="84" y="701" type="curve"/>
      <point x="83" y="693"/>
      <point x="83" y="689"/>
      <point x="84" y="681" type="curve"/>
      <point x="151" y="676"/>
      <point x="155" y="674"/>
      <point x="155" y="614" type="curve" smooth="yes"/>
      <point x="155" y="77" type="line" smooth="yes"/>
      <point x="155" y="25"/>
      <point x="152" y="25"/>
      <point x="84" y="19" type="curve"/>
      <point x="83" y="11"/>
      <point x="83" y="7"/>
      <point x="84" y="-1" type="curve"/>
      <point x="111" y="-1"/>
      <point x="174" y="1"/>
      <point x="197" y="1" type="curve" smooth="yes"/>
      <point x="230" y="1"/>
      <point x="270" y="-3"/>
    </contour>
    <contour>
      <point x="220" y="349" type="line"/>
      <point x="243" y="352"/>
      <point x="272" y="353"/>
      <point x="288" y="353" type="curve" smooth="yes"/>
      <point x="412" y="353"/>
      <point x="475" y="295"/>
      <point x="475" y="183" type="curve" smooth="yes"/>
      <point x="475" y="79"/>
      <point x="421" y="27"/>
      <point x="316" y="27" type="curve" smooth="yes"/>
      <point x="295" y="27"/>
      <point x="263" y="29"/>
      <point x="234" y="33" type="curve"/>
      <point x="234" y="667" type="line"/>
      <point x="256" y="669"/>
      <point x="273" y="671"/>
      <point x="292" y="671" type="curve" smooth="yes"/>
      <point x="387" y="671"/>
      <point x="438" y="625"/>
      <point x="438" y="528" type="curve" smooth="yes"/>
      <point x="438" y="424"/>
      <point x="380" y="382"/>
      <point x="265" y="382" type="curve" smooth="yes"/>
      <point x="255" y="382"/>
      <point x="234" y="382"/>
      <point x="220" y="384" type="curve"/>
    </contour>
  </outline>
</glyph>
<glyph name="D" format="2">
  <advance width="830"/>
  <unicode hex="0044"/>
  <unicode hex="0064"/>
  <outline>
    <contour>
      <point x="201" y="699" type="curve" smooth="yes"/>
      <point x="164" y="699"/>
      <point x="115" y="701"/>
      <point x="82" y="701" type="curve"/>
      <point x="81" y="693"/>
      <point x="81" y="689"/>
      <point x="82" y="681" type="curve"/>
      <point x="149" y="676"/>
      <point x="155" y="674"/>
      <point x="155" y="614" type="curve" smooth="yes"/>
      <point x="155" y="77" type="line" smooth="yes"/>
      <point x="155" y="24"/>
      <point x="152" y="25"/>
      <point x="84" y="19" type="curve"/>
      <point x="83" y="11"/>
      <point x="83" y="7"/>
      <point x="84" y="-1" type="curve"/>
      <point x="113" y="-1"/>
      <point x="172" y="1"/>
      <point x="198" y="1" type="curve" smooth="yes"/>
      <point x="238" y="1"/>
      <point x="304" y="-4"/>
      <point x="355" y="-4" type="curve" smooth="yes"/>
      <point x="592" y="-4"/>
      <point x="775" y="103"/>
      <point x="775" y="352" type="curve" smooth="yes"/>
      <point x="775" y="580"/>
      <point x="621" y="701"/>
      <point x="345" y="701" type="curve" smooth="yes"/>
      <point x="309" y="701"/>
      <point x="238" y="699"/>
    </contour>
    <contour>
      <point x="235" y="667" type="line"/>
      <point x="251" y="668"/>
      <point x="293" y="671"/>
      <point x="329" y="671" type="curve" smooth="yes"/>
      <point x="564" y="671"/>
      <point x="689" y="543"/>
      <point x="689" y="337" type="curve" smooth="yes"/>
      <point x="689" y="143"/>
      <point x="579" y="26"/>
      <point x="362" y="26" type="curve" smooth="yes"/>
      <point x="322" y="26"/>
      <point x="277" y="30"/>
      <point x="235" y="38" type="curve"/>
    </contour>
  </outline>
</glyph>
<glyph name="E" format="2">
  <advance width="608"/>
  <unicode hex="0045"/>
  <unicode hex="0065"/>
  <outline>
    <contour>
      <point x="94" y="-1" type="curve"/>
      <point x="133" y="-1"/>
      <point x="155" y="1"/>
      <point x="223" y="1" type="curve" smooth="yes"/>
      <point x="273" y="1"/>
      <point x="434" y="0"/>
      <point x="521" y="0" type="curve"/>
      <point x="525" y="32"/>
      <point x="532" y="84"/>
      <point x="543" y="138" type="curve"/>
      <point x="535" y="139"/>
      <point x="531" y="139"/>
      <point x="524" y="138" type="curve"/>
      <point x="508" y="98"/>
      <point x="492" y="67"/>
      <point x="479" y="54" type="curve" smooth="yes"/>
      <point x="460" y="35"/>
      <point x="426" y="31"/>
      <point x="378" y="31" type="curve" smooth="yes"/>
      <point x="245" y="31" type="line"/>
      <point x="245" y="669" type="line"/>
      <point x="383" y="669" type="line" smooth="yes"/>
      <point x="421" y="669"/>
      <point x="447" y="665"/>
      <point x="464" y="649" type="curve" smooth="yes"/>
      <point x="477" y="637"/>
      <point x="489" y="616"/>
      <point x="500" y="580" type="curve"/>
      <point x="507" y="579"/>
      <point x="512" y="579"/>
      <point x="520" y="580" type="curve"/>
      <point x="513" y="622"/>
      <point x="507" y="665"/>
      <point x="503" y="701" type="curve"/>
      <point x="491" y="701"/>
      <point x="357" y="699"/>
      <point x="242" y="699" type="curve" smooth="yes"/>
      <point x="159" y="699"/>
      <point x="144" y="701"/>
      <point x="94" y="701" type="curve"/>
      <point x="93" y="693"/>
      <point x="93" y="689"/>
      <point x="94" y="681" type="curve"/>
      <point x="161" y="676"/>
      <point x="165" y="674"/>
      <point x="165" y="614" type="curve" smooth="yes"/>
      <point x="165" y="77" type="line" smooth="yes"/>
      <point x="165" y="25"/>
      <point x="162" y="25"/>
      <point x="94" y="19" type="curve"/>
      <point x="93" y="11"/>
      <point x="93" y="7"/>
    </contour>
    <contour>
      <point x="438" y="264" type="curve"/>
      <point x="447" y="263"/>
      <point x="452" y="263"/>
      <point x="459" y="264" type="curve"/>
      <point x="459" y="276"/>
      <point x="457" y="318"/>
      <point x="457" y="359" type="curve" smooth="yes"/>
      <point x="457" y="404"/>
      <point x="459" y="446"/>
      <point x="459" y="455" type="curve"/>
      <point x="452" y="456"/>
      <point x="446" y="456"/>
      <point x="438" y="455" type="curve"/>
      <point x="428" y="381"/>
      <point x="419" y="377"/>
      <point x="350" y="377" type="curve" smooth="yes"/>
      <point x="230" y="377" type="line"/>
      <point x="230" y="345" type="line"/>
      <point x="356" y="345" type="line" smooth="yes"/>
      <point x="419" y="345"/>
      <point x="429" y="343"/>
    </contour>
  </outline>
  <guideline angle="90" x="-174" y="0"/>
</glyph>
<glyph name="F" format="2">
  <advance width="582"/>
  <unicode hex="0046"/>
  <unicode hex="0066"/>
  <outline>
    <contour>
      <point x="82" y="-1" type="curve"/>
      <point x="113" y="-1"/>
      <point x="165" y="1"/>
      <point x="194" y="1" type="curve" smooth="yes"/>
      <point x="222" y="1"/>
      <point x="283" y="-1"/>
      <point x="313" y="-1" type="curve"/>
      <point x="314" y="7"/>
      <point x="314" y="11"/>
      <point x="313" y="19" type="curve"/>
      <point x="272" y="21"/>
      <point x="254" y="23"/>
      <point x="245" y="32" type="curve"/>
      <point x="235" y="41"/>
      <point x="235" y="56"/>
      <point x="235" y="86" type="curve" smooth="yes"/>
      <point x="235" y="669" type="line"/>
      <point x="387" y="669" type="line" smooth="yes"/>
      <point x="425" y="669"/>
      <point x="452" y="663"/>
      <point x="470" y="648" type="curve" smooth="yes"/>
      <point x="486" y="635"/>
      <point x="497" y="617"/>
      <point x="510" y="580" type="curve"/>
      <point x="517" y="579"/>
      <point x="522" y="579"/>
      <point x="530" y="580" type="curve"/>
      <point x="522" y="624"/>
      <point x="517" y="664"/>
      <point x="512" y="701" type="curve"/>
      <point x="508" y="701"/>
      <point x="335" y="699"/>
      <point x="225" y="699" type="curve" smooth="yes"/>
      <point x="136" y="699"/>
      <point x="131" y="701"/>
      <point x="84" y="701" type="curve"/>
      <point x="83" y="693"/>
      <point x="83" y="689"/>
      <point x="84" y="681" type="curve"/>
      <point x="151" y="676"/>
      <point x="155" y="674"/>
      <point x="155" y="614" type="curve" smooth="yes"/>
      <point x="155" y="77" type="line" smooth="yes"/>
      <point x="155" y="24"/>
      <point x="152" y="25"/>
      <point x="82" y="19" type="curve"/>
      <point x="81" y="11"/>
      <point x="81" y="7"/>
    </contour>
    <contour>
      <point x="438" y="250" type="curve"/>
      <point x="447" y="249"/>
      <point x="452" y="249"/>
      <point x="459" y="250" type="curve"/>
      <point x="459" y="262"/>
      <point x="457" y="308"/>
      <point x="457" y="349" type="curve" smooth="yes"/>
      <point x="457" y="394"/>
      <point x="459" y="436"/>
      <point x="459" y="445" type="curve"/>
      <point x="452" y="446"/>
      <point x="446" y="446"/>
      <point x="438" y="445" type="curve"/>
      <point x="428" y="371"/>
      <point x="419" y="367"/>
      <point x="350" y="367" type="curve" smooth="yes"/>
      <point x="220" y="367" type="line"/>
      <point x="220" y="335" type="line"/>
      <point x="356" y="335" type="line" smooth="yes"/>
      <point x="419" y="335"/>
      <point x="429" y="333"/>
    </contour>
  </outline>
</glyph>
<glyph name="G" format="2">
  <advance width="808"/>
  <unicode hex="0047"/>
  <unicode hex="0067"/>
  <outline>
    <contour>
      <point x="442" y="682" type="curve" smooth="yes"/>
      <point x="581" y="682"/>
      <point x="651" y="624"/>
      <point x="666" y="525" type="curve"/>
      <point x="673" y="525"/>
      <point x="677" y="525"/>
      <point x="685" y="527" type="curve"/>
      <point x="682" y="576"/>
      <point x="678" y="645"/>
      <point x="677" y="688" type="curve"/>
      <point x="669" y="687"/>
      <point x="665" y="687"/>
      <point x="661" y="687" type="curve" smooth="yes"/>
      <point x="637" y="687"/>
      <point x="617" y="692"/>
      <point x="594" y="696" type="curve"/>
      <point x="533" y="706"/>
      <point x="488" y="711"/>
      <point x="443" y="711" type="curve" smooth="yes"/>
      <point x="201" y="711"/>
      <point x="55" y="565"/>
      <point x="55" y="344" type="curve" smooth="yes"/>
      <point x="55" y="117"/>
      <point x="210" y="-12"/>
      <point x="453" y="-12" type="curve" smooth="yes"/>
      <point x="528" y="-12"/>
      <point x="618" y="0"/>
      <point x="684" y="22" type="curve"/>
      <point x="613" y="40" type="line"/>
      <point x="561" y="26"/>
      <point x="499" y="19"/>
      <point x="452" y="19" type="curve" smooth="yes"/>
      <point x="245" y="19"/>
      <point x="145" y="155"/>
      <point x="145" y="358" type="curve" smooth="yes"/>
      <point x="145" y="529"/>
      <point x="216" y="682"/>
    </contour>
    <contour>
      <point x="684" y="22" type="line"/>
      <point x="682" y="35"/>
      <point x="680" y="69"/>
      <point x="680" y="115" type="curve" smooth="yes"/>
      <point x="680" y="250" type="line" smooth="yes"/>
      <point x="680" y="302"/>
      <point x="682" y="302"/>
      <point x="742" y="309" type="curve"/>
      <point x="743" y="317"/>
      <point x="743" y="321"/>
      <point x="742" y="328" type="curve"/>
      <point x="724" y="328"/>
      <point x="669" y="326"/>
      <point x="640" y="326" type="curve" smooth="yes"/>
      <point x="610" y="326"/>
      <point x="552" y="328"/>
      <point x="522" y="328" type="curve"/>
      <point x="521" y="321"/>
      <point x="521" y="316"/>
      <point x="522" y="309" type="curve"/>
      <point x="598" y="303"/>
      <point x="602" y="302"/>
      <point x="602" y="242" type="curve" smooth="yes"/>
      <point x="602" y="24" type="line"/>
    </contour>
  </outline>
</glyph>
<glyph name="H" format="2">
  <advance width="869"/>
  <unicode hex="0048"/>
  <unicode hex="0068"/>
  <outline>
    <contour>
      <point x="83" y="-1" type="curve"/>
      <point x="112" y="-1"/>
      <point x="167" y="1"/>
      <point x="194" y="1" type="curve" smooth="yes"/>
      <point x="221" y="1"/>
      <point x="277" y="-1"/>
      <point x="306" y="-1" type="curve"/>
      <point x="307" y="7"/>
      <point x="307" y="11"/>
      <point x="306" y="19" type="curve"/>
      <point x="237" y="24"/>
      <point x="235" y="25"/>
      <point x="235" y="86" type="curve" smooth="yes"/>
      <point x="235" y="623" type="line" smooth="yes"/>
      <point x="235" y="674"/>
      <point x="238" y="676"/>
      <point x="306" y="681" type="curve"/>
      <point x="307" y="689"/>
      <point x="307" y="693"/>
      <point x="306" y="701" type="curve"/>
      <point x="279" y="701"/>
      <point x="221" y="699"/>
      <point x="195" y="699" type="curve" smooth="yes"/>
      <point x="168" y="699"/>
      <point x="112" y="701"/>
      <point x="83" y="701" type="curve"/>
      <point x="82" y="693"/>
      <point x="82" y="689"/>
      <point x="83" y="681" type="curve"/>
      <point x="151" y="676"/>
      <point x="155" y="675"/>
      <point x="155" y="614" type="curve" smooth="yes"/>
      <point x="155" y="77" type="line" smooth="yes"/>
      <point x="155" y="25"/>
      <point x="150" y="24"/>
      <point x="83" y="19" type="curve"/>
      <point x="82" y="11"/>
      <point x="82" y="7"/>
    </contour>
    <contour>
      <point x="657" y="348" type="line"/>
      <point x="657" y="380" type="line"/>
      <point x="219" y="380" type="line"/>
      <point x="219" y="348" type="line"/>
    </contour>
    <contour>
      <point x="565" y="-1" type="curve"/>
      <point x="594" y="-1"/>
      <point x="647" y="1"/>
      <point x="674" y="1" type="curve" smooth="yes"/>
      <point x="701" y="1"/>
      <point x="756" y="-1"/>
      <point x="786" y="-1" type="curve"/>
      <point x="787" y="7"/>
      <point x="787" y="11"/>
      <point x="786" y="19" type="curve"/>
      <point x="716" y="24"/>
      <point x="714" y="26"/>
      <point x="714" y="86" type="curve" smooth="yes"/>
      <point x="714" y="623" type="line" smooth="yes"/>
      <point x="714" y="674"/>
      <point x="718" y="676"/>
      <point x="786" y="681" type="curve"/>
      <point x="787" y="689"/>
      <point x="787" y="693"/>
      <point x="786" y="701" type="curve"/>
      <point x="756" y="701"/>
      <point x="703" y="699"/>
      <point x="675" y="699" type="curve" smooth="yes"/>
      <point x="648" y="699"/>
      <point x="591" y="701"/>
      <point x="564" y="701" type="curve"/>
      <point x="563" y="693"/>
      <point x="563" y="689"/>
      <point x="564" y="681" type="curve"/>
      <point x="631" y="676"/>
      <point x="634" y="675"/>
      <point x="634" y="614" type="curve" smooth="yes"/>
      <point x="634" y="77" type="line" smooth="yes"/>
      <point x="634" y="25"/>
      <point x="631" y="24"/>
      <point x="565" y="19" type="curve"/>
      <point x="564" y="11"/>
      <point x="564" y="7"/>
    </contour>
  </outline>
  <guideline angle="0" x="0" y="497"/>
</glyph>
<glyph name="I" format="2">
  <advance width="390"/>
  <unicode hex="0049"/>
  <unicode hex="0069"/>
  <unicode hex="0131"/>
  <outline>
    <contour>
      <point x="235" y="623" type="line" smooth="yes"/>
      <point x="235" y="676"/>
      <point x="237" y="675"/>
      <point x="307" y="681" type="curve"/>
      <point x="308" y="689"/>
      <point x="308" y="693"/>
      <point x="307" y="701" type="curve"/>
      <point x="278" y="701"/>
      <point x="223" y="699"/>
      <point x="196" y="699" type="curve" smooth="yes"/>
      <point x="168" y="699"/>
      <point x="112" y="701"/>
      <point x="82" y="701" type="curve"/>
      <point x="81" y="693"/>
      <point x="81" y="689"/>
      <point x="82" y="681" type="curve"/>
      <point x="151" y="676"/>
      <point x="155" y="674"/>
      <point x="155" y="614" type="curve" smooth="yes"/>
      <point x="155" y="77" type="line" smooth="yes"/>
      <point x="155" y="24"/>
      <point x="152" y="25"/>
      <point x="82" y="19" type="curve"/>
      <point x="81" y="11"/>
      <point x="81" y="7"/>
      <point x="82" y="-1" type="curve"/>
      <point x="113" y="-1"/>
      <point x="166" y="1"/>
      <point x="195" y="1" type="curve" smooth="yes"/>
      <point x="222" y="1"/>
      <point x="277" y="-1"/>
      <point x="307" y="-1" type="curve"/>
      <point x="308" y="7"/>
      <point x="308" y="11"/>
      <point x="307" y="19" type="curve"/>
      <point x="235" y="24"/>
      <point x="235" y="25"/>
      <point x="235" y="86" type="curve" smooth="yes"/>
    </contour>
  </outline>
</glyph>
<glyph name="J" format="2">
  <advance width="354"/>
  <unicode hex="004A"/>
  <unicode hex="006A"/>
  <unicode hex="0237"/>
  <outline>
    <contour>
      <point x="40" y="-212" type="curve" smooth="yes"/>
      <point x="87" y="-212"/>
      <point x="135" y="-191"/>
      <point x="170" y="-149" type="curve" smooth="yes"/>
      <point x="207" y="-104"/>
      <point x="224" y="-43"/>
      <point x="224" y="46" type="curve" smooth="yes"/>
      <point x="224" y="623" type="line" smooth="yes"/>
      <point x="224" y="676"/>
      <point x="227" y="675"/>
      <point x="297" y="681" type="curve"/>
      <point x="297" y="689"/>
      <point x="297" y="693"/>
      <point x="297" y="701" type="curve"/>
      <point x="266" y="701"/>
      <point x="215" y="699"/>
      <point x="185" y="699" type="curve" smooth="yes"/>
      <point x="155" y="699"/>
      <point x="101" y="701"/>
      <point x="73" y="701" type="curve"/>
      <point x="72" y="693"/>
      <point x="72" y="689"/>
      <point x="73" y="681" type="curve"/>
      <point x="142" y="676"/>
      <point x="145" y="674"/>
      <point x="145" y="614" type="curve" smooth="yes"/>
      <point x="145" y="11" type="line" smooth="yes"/>
      <point x="145" y="-86"/>
      <point x="145" y="-161"/>
      <point x="80" y="-175" type="curve"/>
      <point x="65" y="-147"/>
      <point x="43" y="-120"/>
      <point x="12" y="-120" type="curve" smooth="yes"/>
      <point x="-13" y="-120"/>
      <point x="-34" y="-136"/>
      <point x="-34" y="-162" type="curve" smooth="yes"/>
      <point x="-34" y="-193"/>
      <point x="-4" y="-212"/>
    </contour>
  </outline>
</glyph>
<glyph name="K" format="2">
  <advance width="672"/>
  <unicode hex="004B"/>
  <unicode hex="006B"/>
  <outline>
    <contour>
      <point x="82" y="-1" type="curve"/>
      <point x="112" y="-1"/>
      <point x="165" y="1"/>
      <point x="193" y="1" type="curve" smooth="yes"/>
      <point x="221" y="1"/>
      <point x="275" y="-1"/>
      <point x="304" y="-1" type="curve"/>
      <point x="305" y="7"/>
      <point x="305" y="11"/>
      <point x="304" y="19" type="curve"/>
      <point x="238" y="24"/>
      <point x="235" y="24"/>
      <point x="235" y="86" type="curve" smooth="yes"/>
      <point x="235" y="623" type="line" smooth="yes"/>
      <point x="235" y="676"/>
      <point x="237" y="675"/>
      <point x="304" y="681" type="curve"/>
      <point x="305" y="689"/>
      <point x="305" y="693"/>
      <point x="304" y="701" type="curve"/>
      <point x="275" y="701"/>
      <point x="221" y="699"/>
      <point x="195" y="699" type="curve" smooth="yes"/>
      <point x="168" y="699"/>
      <point x="111" y="701"/>
      <point x="82" y="701" type="curve"/>
      <point x="81" y="693"/>
      <point x="81" y="689"/>
      <point x="82" y="681" type="curve"/>
      <point x="151" y="676"/>
      <point x="155" y="674"/>
      <point x="155" y="614" type="curve" smooth="yes"/>
      <point x="155" y="77" type="line" smooth="yes"/>
      <point x="155" y="24"/>
      <point x="152" y="25"/>
      <point x="82" y="19" type="curve"/>
      <point x="81" y="11"/>
      <point x="81" y="7"/>
    </contour>
    <contour>
      <point x="666" y="-1" type="curve"/>
      <point x="667" y="7"/>
      <point x="667" y="11"/>
      <point x="666" y="19" type="curve"/>
      <point x="602" y="24"/>
      <point x="591" y="29"/>
      <point x="542" y="94" type="curve" smooth="yes"/>
      <point x="305" y="406" type="line"/>
      <point x="251" y="350" type="line"/>
      <point x="513" y="0" type="line"/>
      <point x="521" y="0"/>
      <point x="543" y="1"/>
      <point x="558" y="1" type="curve" smooth="yes"/>
      <point x="583" y="1"/>
      <point x="638" y="-1"/>
    </contour>
    <contour>
      <point x="290" y="375" type="line"/>
      <point x="497" y="590" type="line" smooth="yes"/>
      <point x="568" y="664"/>
      <point x="582" y="676"/>
      <point x="641" y="681" type="curve"/>
      <point x="642" y="689"/>
      <point x="642" y="693"/>
      <point x="641" y="701" type="curve"/>
      <point x="609" y="701"/>
      <point x="580" y="699"/>
      <point x="549" y="699" type="curve" smooth="yes"/>
      <point x="525" y="699"/>
      <point x="473" y="701"/>
      <point x="449" y="701" type="curve"/>
      <point x="448" y="693"/>
      <point x="448" y="689"/>
      <point x="449" y="681" type="curve"/>
      <point x="489" y="679"/>
      <point x="505" y="674"/>
      <point x="505" y="662" type="curve" smooth="yes"/>
      <point x="505" y="653"/>
      <point x="498" y="639"/>
      <point x="475" y="615" type="curve" smooth="yes"/>
      <point x="209" y="333" type="line"/>
      <point x="209" y="286" type="line"/>
    </contour>
  </outline>
</glyph>
<glyph name="M" format="2">
  <advance width="1005"/>
  <unicode hex="004D"/>
  <unicode hex="006D"/>
  <outline>
    <contour>
      <point x="498" y="111" type="line"/>
      <point x="260" y="700" type="line"/>
      <point x="240" y="699"/>
      <point x="213" y="699"/>
      <point x="198" y="699" type="curve" smooth="yes"/>
      <point x="156" y="699"/>
      <point x="119" y="701"/>
      <point x="86" y="701" type="curve"/>
      <point x="85" y="693"/>
      <point x="85" y="690"/>
      <point x="86" y="682" type="curve"/>
      <point x="157" y="676"/>
      <point x="163" y="675"/>
      <point x="161" y="624" type="curve" smooth="yes"/>
      <point x="141" y="85" type="line" smooth="yes"/>
      <point x="139" y="28"/>
      <point x="133" y="26"/>
      <point x="64" y="18" type="curve"/>
      <point x="63" y="11"/>
      <point x="63" y="7"/>
      <point x="64" y="-1" type="curve"/>
      <point x="76" y="-1"/>
      <point x="148" y="1"/>
      <point x="159" y="1" type="curve" smooth="yes"/>
      <point x="175" y="1"/>
      <point x="234" y="-1"/>
      <point x="249" y="-1" type="curve"/>
      <point x="250" y="7"/>
      <point x="250" y="10"/>
      <point x="249" y="18" type="curve"/>
      <point x="180" y="27"/>
      <point x="176" y="28"/>
      <point x="178" y="76" type="curve" smooth="yes"/>
      <point x="197" y="669" type="line"/>
      <point x="190" y="661" type="line"/>
      <point x="456" y="-3" type="line"/>
      <point x="466" y="-3"/>
      <point x="483" y="-2"/>
      <point x="490" y="1" type="curve"/>
      <point x="770" y="673" type="line"/>
      <point x="765" y="669" type="line"/>
      <point x="774" y="76" type="line" smooth="yes"/>
      <point x="775" y="25"/>
      <point x="768" y="24"/>
      <point x="702" y="18" type="curve"/>
      <point x="701" y="10"/>
      <point x="701" y="7"/>
      <point x="702" y="-1" type="curve"/>
      <point x="718" y="-1"/>
      <point x="799" y="1"/>
      <point x="814" y="1" type="curve" smooth="yes"/>
      <point x="830" y="1"/>
      <point x="916" y="-1"/>
      <point x="932" y="-1" type="curve"/>
      <point x="933" y="7"/>
      <point x="933" y="11"/>
      <point x="932" y="18" type="curve"/>
      <point x="861" y="24"/>
      <point x="855" y="24"/>
      <point x="854" y="85" type="curve" smooth="yes"/>
      <point x="845" y="624" type="line" smooth="yes"/>
      <point x="844" y="676"/>
      <point x="848" y="676"/>
      <point x="917" y="682" type="curve"/>
      <point x="918" y="690"/>
      <point x="918" y="693"/>
      <point x="917" y="701" type="curve"/>
      <point x="901" y="701"/>
      <point x="821" y="699"/>
      <point x="805" y="699" type="curve" smooth="yes"/>
      <point x="790" y="699"/>
      <point x="765" y="699"/>
      <point x="745" y="700" type="curve"/>
    </contour>
  </outline>
</glyph>
<glyph name="N" format="2">
  <advance width="838"/>
  <unicode hex="004E"/>
  <unicode hex="006E"/>
  <outline>
    <contour>
      <point x="662" y="-5" type="line"/>
      <point x="674" y="-5"/>
      <point x="693" y="-4"/>
      <point x="703" y="-1" type="curve"/>
      <point x="703" y="604" type="line" smooth="yes"/>
      <point x="703" y="669"/>
      <point x="706" y="673"/>
      <point x="776" y="681" type="curve"/>
      <point x="777" y="689"/>
      <point x="777" y="693"/>
      <point x="776" y="700" type="curve"/>
      <point x="747" y="700"/>
      <point x="707" y="699"/>
      <point x="683" y="699" type="curve" smooth="yes"/>
      <point x="659" y="699"/>
      <point x="610" y="700"/>
      <point x="582" y="700" type="curve"/>
      <point x="581" y="693"/>
      <point x="581" y="689"/>
      <point x="582" y="681" type="curve"/>
      <point x="622" y="678"/>
      <point x="646" y="671"/>
      <point x="656" y="660" type="curve" smooth="yes"/>
      <point x="666" y="650"/>
      <point x="666" y="631"/>
      <point x="666" y="595" type="curve" smooth="yes"/>
      <point x="666" y="107" type="line"/>
      <point x="673" y="112" type="line"/>
      <point x="220" y="700" type="line"/>
      <point x="203" y="699"/>
      <point x="175" y="699"/>
      <point x="171" y="699" type="curve" smooth="yes"/>
      <point x="137" y="699"/>
      <point x="102" y="701"/>
      <point x="72" y="701" type="curve"/>
      <point x="71" y="693"/>
      <point x="71" y="689"/>
      <point x="72" y="682" type="curve"/>
      <point x="146" y="674"/>
      <point x="150" y="669"/>
      <point x="150" y="592" type="curve" smooth="yes"/>
      <point x="150" y="95" type="line" smooth="yes"/>
      <point x="150" y="29"/>
      <point x="147" y="27"/>
      <point x="78" y="19" type="curve"/>
      <point x="77" y="11"/>
      <point x="77" y="7"/>
      <point x="78" y="-1" type="curve"/>
      <point x="106" y="-1"/>
      <point x="146" y="1"/>
      <point x="170" y="1" type="curve" smooth="yes"/>
      <point x="194" y="1"/>
      <point x="234" y="-1"/>
      <point x="263" y="-1" type="curve"/>
      <point x="264" y="7"/>
      <point x="264" y="11"/>
      <point x="263" y="19" type="curve"/>
      <point x="226" y="22"/>
      <point x="207" y="29"/>
      <point x="197" y="39" type="curve" smooth="yes"/>
      <point x="188" y="49"/>
      <point x="187" y="67"/>
      <point x="187" y="104" type="curve" smooth="yes"/>
      <point x="187" y="624" type="line"/>
      <point x="180" y="619" type="line"/>
    </contour>
  </outline>
</glyph>
<glyph name="P" format="2">
  <advance width="594"/>
  <unicode hex="0050"/>
  <unicode hex="0070"/>
  <outline>
    <contour>
      <point x="229" y="321" type="line"/>
      <point x="259" y="314"/>
      <point x="276" y="312"/>
      <point x="300" y="312" type="curve" smooth="yes"/>
      <point x="439" y="312"/>
      <point x="544" y="381"/>
      <point x="544" y="519" type="curve" smooth="yes"/>
      <point x="544" y="656"/>
      <point x="441" y="701"/>
      <point x="326" y="701" type="curve" smooth="yes"/>
      <point x="301" y="701"/>
      <point x="222" y="699"/>
      <point x="195" y="699" type="curve" smooth="yes"/>
      <point x="169" y="699"/>
      <point x="112" y="701"/>
      <point x="82" y="701" type="curve"/>
      <point x="81" y="693"/>
      <point x="81" y="689"/>
      <point x="82" y="681" type="curve"/>
      <point x="151" y="676"/>
      <point x="155" y="674"/>
      <point x="155" y="614" type="curve" smooth="yes"/>
      <point x="155" y="77" type="line" smooth="yes"/>
      <point x="155" y="24"/>
      <point x="152" y="25"/>
      <point x="82" y="19" type="curve"/>
      <point x="81" y="11"/>
      <point x="81" y="7"/>
      <point x="82" y="-1" type="curve"/>
      <point x="113" y="-1"/>
      <point x="166" y="1"/>
      <point x="195" y="1" type="curve" smooth="yes"/>
      <point x="223" y="1"/>
      <point x="283" y="-1"/>
      <point x="315" y="-1" type="curve"/>
      <point x="316" y="7"/>
      <point x="316" y="11"/>
      <point x="315" y="19" type="curve"/>
      <point x="270" y="21"/>
      <point x="255" y="23"/>
      <point x="245" y="32" type="curve" smooth="yes"/>
      <point x="235" y="41"/>
      <point x="235" y="54"/>
      <point x="235" y="86" type="curve" smooth="yes"/>
      <point x="235" y="669" type="line"/>
      <point x="254" y="672"/>
      <point x="277" y="672"/>
      <point x="292" y="672" type="curve" smooth="yes"/>
      <point x="402" y="672"/>
      <point x="457" y="612"/>
      <point x="457" y="513" type="curve" smooth="yes"/>
      <point x="457" y="408"/>
      <point x="397" y="342"/>
      <point x="287" y="342" type="curve" smooth="yes"/>
      <point x="274" y="342"/>
      <point x="252" y="343"/>
      <point x="229" y="349" type="curve"/>
    </contour>
  </outline>
</glyph>
<glyph name="Q" format="2">
  <advance width="833"/>
  <unicode hex="0051"/>
  <unicode hex="0071"/>
  <outline>
    <contour>
      <point x="410" y="-12" type="curve" smooth="yes"/>
      <point x="440" y="-13"/>
      <point x="443" y="-13"/>
      <point x="463" y="-31" type="curve" smooth="yes"/>
      <point x="595" y="-150"/>
      <point x="666" y="-212"/>
      <point x="772" y="-212" type="curve" smooth="yes"/>
      <point x="843" y="-212"/>
      <point x="933" y="-180"/>
      <point x="1008" y="-114" type="curve"/>
      <point x="1006" y="-107"/>
      <point x="1003" y="-103"/>
      <point x="998" y="-99" type="curve"/>
      <point x="936" y="-139"/>
      <point x="873" y="-156"/>
      <point x="812" y="-156" type="curve" smooth="yes"/>
      <point x="738" y="-156"/>
      <point x="677" y="-126"/>
      <point x="537" y="4" type="curve"/>
      <point x="537" y="14" type="line"/>
      <point x="520" y="2" type="line"/>
      <point x="687" y="47"/>
      <point x="778" y="185"/>
      <point x="778" y="356" type="curve" smooth="yes"/>
      <point x="778" y="563"/>
      <point x="642" y="711"/>
      <point x="423" y="711" type="curve" smooth="yes"/>
      <point x="199" y="711"/>
      <point x="55" y="556"/>
      <point x="55" y="342" type="curve" smooth="yes"/>
      <point x="55" y="168"/>
      <point x="150" y="-1"/>
    </contour>
    <contour>
      <point x="689" y="346" type="curve" smooth="yes"/>
      <point x="689" y="183"/>
      <point x="619" y="17"/>
      <point x="422" y="17" type="curve" smooth="yes"/>
      <point x="220" y="17"/>
      <point x="145" y="192"/>
      <point x="145" y="352" type="curve" smooth="yes"/>
      <point x="145" y="512"/>
      <point x="220" y="681"/>
      <point x="418" y="681" type="curve" smooth="yes"/>
      <point x="616" y="681"/>
      <point x="689" y="513"/>
    </contour>
  </outline>
</glyph>
<glyph name="R" format="2">
  <advance width="673"/>
  <unicode hex="0052"/>
  <unicode hex="0072"/>
  <outline>
    <contour>
      <point x="223" y="329" type="line"/>
      <point x="260" y="326" type="line" smooth="yes"/>
      <point x="308" y="322"/>
      <point x="321" y="317"/>
      <point x="356" y="270" type="curve" smooth="yes"/>
      <point x="410" y="197"/>
      <point x="502" y="50"/>
      <point x="532" y="0" type="curve"/>
      <point x="547" y="0"/>
      <point x="561" y="1"/>
      <point x="577" y="1" type="curve" smooth="yes"/>
      <point x="599" y="1"/>
      <point x="658" y="-1"/>
      <point x="687" y="-1" type="curve"/>
      <point x="688" y="7"/>
      <point x="688" y="11"/>
      <point x="687" y="19" type="curve"/>
      <point x="622" y="24"/>
      <point x="608" y="27"/>
      <point x="562" y="98" type="curve" smooth="yes"/>
      <point x="520" y="163"/>
      <point x="457" y="258"/>
      <point x="433" y="289" type="curve" smooth="yes"/>
      <point x="412" y="316"/>
      <point x="397" y="327"/>
      <point x="378" y="337" type="curve"/>
      <point x="378" y="348" type="line"/>
      <point x="373" y="338" type="line"/>
      <point x="474" y="369"/>
      <point x="540" y="429"/>
      <point x="540" y="529" type="curve" smooth="yes"/>
      <point x="540" y="654"/>
      <point x="438" y="701"/>
      <point x="324" y="701" type="curve" smooth="yes"/>
      <point x="300" y="701"/>
      <point x="221" y="699"/>
      <point x="195" y="699" type="curve" smooth="yes"/>
      <point x="169" y="699"/>
      <point x="110" y="701"/>
      <point x="82" y="701" type="curve"/>
      <point x="81" y="693"/>
      <point x="81" y="689"/>
      <point x="82" y="681" type="curve"/>
      <point x="150" y="676"/>
      <point x="155" y="674"/>
      <point x="155" y="615" type="curve" smooth="yes"/>
      <point x="155" y="77" type="line" smooth="yes"/>
      <point x="155" y="24"/>
      <point x="152" y="24"/>
      <point x="82" y="19" type="curve"/>
      <point x="81" y="11"/>
      <point x="81" y="7"/>
      <point x="82" y="-1" type="curve"/>
      <point x="110" y="-1"/>
      <point x="167" y="1"/>
      <point x="194" y="1" type="curve" smooth="yes"/>
      <point x="221" y="1"/>
      <point x="281" y="-1"/>
      <point x="310" y="-1" type="curve"/>
      <point x="311" y="7"/>
      <point x="311" y="11"/>
      <point x="310" y="19" type="curve"/>
      <point x="238" y="24"/>
      <point x="235" y="25"/>
      <point x="235" y="86" type="curve" smooth="yes"/>
      <point x="235" y="669" type="line"/>
      <point x="256" y="671"/>
      <point x="277" y="672"/>
      <point x="292" y="672" type="curve" smooth="yes"/>
      <point x="398" y="672"/>
      <point x="454" y="618"/>
      <point x="454" y="518" type="curve" smooth="yes"/>
      <point x="454" y="406"/>
      <point x="384" y="355"/>
      <point x="277" y="355" type="curve" smooth="yes"/>
      <point x="262" y="355"/>
      <point x="247" y="356"/>
      <point x="223" y="360" type="curve"/>
    </contour>
  </outline>
</glyph>
<glyph name="S" format="2">
  <advance width="533"/>
  <unicode hex="0053"/>
  <unicode hex="0073"/>
  <outline>
    <contour>
      <point x="85" y="3" type="curve"/>
      <point x="107" y="3"/>
      <point x="127" y="1"/>
      <point x="167" y="-4" type="curve" smooth="yes"/>
      <point x="215" y="-10"/>
      <point x="235" y="-12"/>
      <point x="255" y="-12" type="curve" smooth="yes"/>
      <point x="392" y="-12"/>
      <point x="458" y="77"/>
      <point x="458" y="175" type="curve" smooth="yes"/>
      <point x="458" y="284"/>
      <point x="376" y="340"/>
      <point x="298" y="391" type="curve" smooth="yes"/>
      <point x="218" y="443"/>
      <point x="156" y="484"/>
      <point x="156" y="566" type="curve" smooth="yes"/>
      <point x="156" y="640"/>
      <point x="207" y="683"/>
      <point x="277" y="683" type="curve" smooth="yes"/>
      <point x="309" y="683"/>
      <point x="345" y="674"/>
      <point x="368" y="654" type="curve" smooth="yes"/>
      <point x="389" y="635"/>
      <point x="407" y="601"/>
      <point x="414" y="558" type="curve"/>
      <point x="421" y="558"/>
      <point x="426" y="558"/>
      <point x="434" y="560" type="curve"/>
      <point x="426" y="702" type="line"/>
      <point x="416" y="701"/>
      <point x="410" y="701"/>
      <point x="407" y="701" type="curve" smooth="yes"/>
      <point x="394" y="701"/>
      <point x="379" y="702"/>
      <point x="354" y="705" type="curve" smooth="yes"/>
      <point x="329" y="708"/>
      <point x="312" y="711"/>
      <point x="288" y="711" type="curve" smooth="yes"/>
      <point x="169" y="711"/>
      <point x="83" y="639"/>
      <point x="83" y="533" type="curve" smooth="yes"/>
      <point x="83" y="431"/>
      <point x="162" y="380"/>
      <point x="241" y="330" type="curve" smooth="yes"/>
      <point x="325" y="277"/>
      <point x="388" y="235"/>
      <point x="388" y="145" type="curve" smooth="yes"/>
      <point x="388" y="69"/>
      <point x="342" y="16"/>
      <point x="260" y="16" type="curve" smooth="yes"/>
      <point x="181" y="16"/>
      <point x="113" y="64"/>
      <point x="99" y="155" type="curve"/>
      <point x="92" y="155"/>
      <point x="87" y="155"/>
      <point x="80" y="154" type="curve"/>
      <point x="84" y="98"/>
      <point x="84" y="45"/>
    </contour>
  </outline>
</glyph>
<glyph name="T" format="2">
  <advance width="650"/>
  <unicode hex="0054"/>
  <unicode hex="0074"/>
  <outline>
    <contour>
      <point x="211" y="-1" type="curve"/>
      <point x="242" y="-1"/>
      <point x="297" y="1"/>
      <point x="325" y="1" type="curve" smooth="yes"/>
      <point x="353" y="1"/>
      <point x="409" y="-1"/>
      <point x="439" y="-1" type="curve"/>
      <point x="440" y="7"/>
      <point x="440" y="11"/>
      <point x="439" y="19" type="curve"/>
      <point x="367" y="24"/>
      <point x="365" y="25"/>
      <point x="365" y="86" type="curve" smooth="yes"/>
      <point x="365" y="688" type="line"/>
      <point x="285" y="688" type="line"/>
      <point x="285" y="77" type="line" smooth="yes"/>
      <point x="285" y="24"/>
      <point x="283" y="25"/>
      <point x="211" y="19" type="curve"/>
      <point x="210" y="11"/>
      <point x="210" y="7"/>
    </contour>
    <contour>
      <point x="25" y="564" type="curve"/>
      <point x="32" y="563"/>
      <point x="37" y="563"/>
      <point x="44" y="564" type="curve"/>
      <point x="68" y="649"/>
      <point x="78" y="670"/>
      <point x="158" y="670" type="curve" smooth="yes"/>
      <point x="491" y="670" type="line" smooth="yes"/>
      <point x="570" y="670"/>
      <point x="578" y="650"/>
      <point x="605" y="564" type="curve"/>
      <point x="612" y="563"/>
      <point x="617" y="563"/>
      <point x="625" y="564" type="curve"/>
      <point x="619" y="610"/>
      <point x="614" y="663"/>
      <point x="611" y="702" type="curve"/>
      <point x="548" y="699"/>
      <point x="470" y="699"/>
      <point x="326" y="699" type="curve" smooth="yes"/>
      <point x="184" y="699"/>
      <point x="104" y="699"/>
      <point x="41" y="702" type="curve"/>
      <point x="37" y="662"/>
      <point x="31" y="610"/>
    </contour>
  </outline>
</glyph>
<glyph name="U" format="2">
  <advance width="778"/>
  <unicode hex="0055"/>
  <unicode hex="0075"/>
  <outline>
    <contour>
      <point x="58" y="701" type="curve"/>
      <point x="57" y="693"/>
      <point x="57" y="689"/>
      <point x="58" y="682" type="curve"/>
      <point x="127" y="676"/>
      <point x="130" y="675"/>
      <point x="130" y="615" type="curve" smooth="yes"/>
      <point x="130" y="243" type="line" smooth="yes"/>
      <point x="130" y="76"/>
      <point x="233" y="-12"/>
      <point x="392" y="-12" type="curve" smooth="yes"/>
      <point x="573" y="-12"/>
      <point x="658" y="99"/>
      <point x="658" y="271" type="curve" smooth="yes"/>
      <point x="658" y="616" type="line" smooth="yes"/>
      <point x="658" y="675"/>
      <point x="662" y="674"/>
      <point x="730" y="681" type="curve"/>
      <point x="731" y="689"/>
      <point x="731" y="693"/>
      <point x="730" y="700" type="curve"/>
      <point x="703" y="700"/>
      <point x="662" y="699"/>
      <point x="638" y="699" type="curve" smooth="yes"/>
      <point x="615" y="699"/>
      <point x="570" y="700"/>
      <point x="544" y="700" type="curve"/>
      <point x="543" y="692"/>
      <point x="543" y="689"/>
      <point x="544" y="681" type="curve"/>
      <point x="617" y="674"/>
      <point x="621" y="674"/>
      <point x="621" y="607" type="curve" smooth="yes"/>
      <point x="621" y="286" type="line" smooth="yes"/>
      <point x="621" y="116"/>
      <point x="551" y="27"/>
      <point x="412" y="27" type="curve" smooth="yes"/>
      <point x="280" y="27"/>
      <point x="210" y="109"/>
      <point x="210" y="265" type="curve" smooth="yes"/>
      <point x="210" y="624" type="line" smooth="yes"/>
      <point x="210" y="676"/>
      <point x="214" y="676"/>
      <point x="281" y="682" type="curve"/>
      <point x="282" y="690"/>
      <point x="282" y="693"/>
      <point x="281" y="701" type="curve"/>
      <point x="252" y="701"/>
      <point x="197" y="699"/>
      <point x="169" y="699" type="curve" smooth="yes"/>
      <point x="141" y="699"/>
      <point x="87" y="701"/>
    </contour>
  </outline>
</glyph>
<glyph name="V" format="2">
  <advance width="668"/>
  <unicode hex="0056"/>
  <unicode hex="0076"/>
  <outline>
    <contour>
      <point x="686" y="701" type="curve"/>
      <point x="657" y="701"/>
      <point x="616" y="699"/>
      <point x="589" y="699" type="curve" smooth="yes"/>
      <point x="556" y="699"/>
      <point x="519" y="701"/>
      <point x="486" y="701" type="curve"/>
      <point x="485" y="693"/>
      <point x="485" y="689"/>
      <point x="486" y="681" type="curve"/>
      <point x="538" y="677"/>
      <point x="556" y="675"/>
      <point x="556" y="654" type="curve" smooth="yes"/>
      <point x="556" y="644"/>
      <point x="553" y="634"/>
      <point x="546" y="615" type="curve" smooth="yes"/>
      <point x="355" y="87" type="line"/>
      <point x="365" y="87" type="line"/>
      <point x="168" y="626" type="line"/>
      <point x="163" y="641"/>
      <point x="160" y="650"/>
      <point x="160" y="657" type="curve" smooth="yes"/>
      <point x="160" y="676"/>
      <point x="171" y="677"/>
      <point x="224" y="681" type="curve"/>
      <point x="225" y="689"/>
      <point x="225" y="693"/>
      <point x="224" y="701" type="curve"/>
      <point x="187" y="701"/>
      <point x="150" y="699"/>
      <point x="113" y="699" type="curve" smooth="yes"/>
      <point x="77" y="699"/>
      <point x="25" y="701"/>
      <point x="-10" y="701" type="curve"/>
      <point x="-11" y="693"/>
      <point x="-11" y="689"/>
      <point x="-10" y="681" type="curve"/>
      <point x="63" y="676"/>
      <point x="65" y="675"/>
      <point x="91" y="605" type="curve" smooth="yes"/>
      <point x="318" y="-5" type="line"/>
      <point x="328" y="-5"/>
      <point x="346" y="-3"/>
      <point x="356" y="1" type="curve"/>
      <point x="581" y="599" type="line" smooth="yes"/>
      <point x="608" y="673"/>
      <point x="614" y="676"/>
      <point x="686" y="681" type="curve"/>
      <point x="687" y="689"/>
      <point x="687" y="693"/>
    </contour>
  </outline>
</glyph>
<glyph name="W" format="2">
  <advance width="1027"/>
  <unicode hex="0057"/>
  <unicode hex="0077"/>
  <outline>
    <contour>
      <point x="677" y="-7" type="line"/>
      <point x="686" y="-6"/>
      <point x="705" y="-4"/>
      <point x="715" y="-1" type="curve"/>
      <point x="948" y="597" type="line" smooth="yes"/>
      <point x="978" y="673"/>
      <point x="986" y="676"/>
      <point x="1049" y="681" type="curve"/>
      <point x="1050" y="689"/>
      <point x="1050" y="693"/>
      <point x="1049" y="701" type="curve"/>
      <point x="1019" y="701"/>
      <point x="990" y="699"/>
      <point x="960" y="699" type="curve" smooth="yes"/>
      <point x="939" y="699"/>
      <point x="880" y="701"/>
      <point x="860" y="701" type="curve"/>
      <point x="859" y="693"/>
      <point x="859" y="689"/>
      <point x="860" y="681" type="curve"/>
      <point x="907" y="677"/>
      <point x="924" y="673"/>
      <point x="924" y="655" type="curve" smooth="yes"/>
      <point x="924" y="646"/>
      <point x="919" y="634"/>
      <point x="912" y="615" type="curve" smooth="yes"/>
      <point x="715" y="83" type="line"/>
      <point x="724" y="86" type="line"/>
      <point x="541" y="626" type="line" smooth="yes"/>
      <point x="536" y="641"/>
      <point x="534" y="650"/>
      <point x="534" y="657" type="curve" smooth="yes"/>
      <point x="534" y="676"/>
      <point x="550" y="677"/>
      <point x="604" y="681" type="curve"/>
      <point x="605" y="689"/>
      <point x="605" y="693"/>
      <point x="604" y="701" type="curve"/>
      <point x="572" y="701"/>
      <point x="519" y="699"/>
      <point x="489" y="699" type="curve" smooth="yes"/>
      <point x="456" y="699"/>
      <point x="415" y="701"/>
      <point x="382" y="701" type="curve"/>
      <point x="381" y="693"/>
      <point x="381" y="689"/>
      <point x="382" y="681" type="curve"/>
      <point x="439" y="676"/>
      <point x="441" y="676"/>
      <point x="465" y="605" type="curve" smooth="yes"/>
    </contour>
    <contour>
      <point x="304" y="-5" type="line"/>
      <point x="315" y="-4"/>
      <point x="333" y="-2"/>
      <point x="344" y="1" type="curve"/>
      <point x="551" y="492" type="line"/>
      <point x="533" y="534" type="line"/>
      <point x="342" y="84" type="line"/>
      <point x="352" y="88" type="line"/>
      <point x="169" y="626" type="line" smooth="yes"/>
      <point x="163" y="642"/>
      <point x="161" y="651"/>
      <point x="161" y="658" type="curve" smooth="yes"/>
      <point x="161" y="676"/>
      <point x="175" y="677"/>
      <point x="221" y="681" type="curve"/>
      <point x="222" y="689"/>
      <point x="222" y="693"/>
      <point x="221" y="701" type="curve"/>
      <point x="192" y="701"/>
      <point x="140" y="699"/>
      <point x="111" y="699" type="curve" smooth="yes"/>
      <point x="78" y="699"/>
      <point x="34" y="701"/>
      <point x="2" y="701" type="curve"/>
      <point x="1" y="693"/>
      <point x="1" y="689"/>
      <point x="2" y="681" type="curve"/>
      <point x="64" y="676"/>
      <point x="68" y="676"/>
      <point x="92" y="606" type="curve" smooth="yes"/>
    </contour>
  </outline>
</glyph>
<glyph name="X" format="2">
  <advance width="655"/>
  <unicode hex="0058"/>
  <unicode hex="0078"/>
  <outline>
    <contour>
      <point x="414" y="-1" type="curve"/>
      <point x="446" y="-1"/>
      <point x="503" y="1"/>
      <point x="534" y="1" type="curve" smooth="yes"/>
      <point x="571" y="1"/>
      <point x="613" y="-1"/>
      <point x="649" y="-1" type="curve"/>
      <point x="650" y="7"/>
      <point x="650" y="11"/>
      <point x="649" y="19" type="curve"/>
      <point x="588" y="24"/>
      <point x="577" y="28"/>
      <point x="538" y="93" type="curve" smooth="yes"/>
      <point x="213" y="630" type="line" smooth="yes"/>
      <point x="204" y="645"/>
      <point x="200" y="654"/>
      <point x="200" y="661" type="curve" smooth="yes"/>
      <point x="200" y="673"/>
      <point x="215" y="678"/>
      <point x="256" y="681" type="curve"/>
      <point x="257" y="689"/>
      <point x="257" y="693"/>
      <point x="256" y="701" type="curve"/>
      <point x="225" y="701"/>
      <point x="171" y="699"/>
      <point x="139" y="699" type="curve" smooth="yes"/>
      <point x="104" y="699"/>
      <point x="59" y="701"/>
      <point x="24" y="701" type="curve"/>
      <point x="23" y="693"/>
      <point x="23" y="689"/>
      <point x="24" y="681" type="curve"/>
      <point x="83" y="676"/>
      <point x="96" y="671"/>
      <point x="135" y="607" type="curve" smooth="yes"/>
      <point x="460" y="70" type="line" smooth="yes"/>
      <point x="469" y="55"/>
      <point x="474" y="46"/>
      <point x="474" y="39" type="curve" smooth="yes"/>
      <point x="474" y="27"/>
      <point x="457" y="22"/>
      <point x="414" y="19" type="curve"/>
      <point x="413" y="11"/>
      <point x="413" y="7"/>
    </contour>
    <contour>
      <point x="295" y="353" type="line"/>
      <point x="127" y="100" type="line" smooth="yes"/>
      <point x="81" y="31"/>
      <point x="69" y="24"/>
      <point x="6" y="19" type="curve"/>
      <point x="5" y="11"/>
      <point x="5" y="7"/>
      <point x="6" y="-1" type="curve"/>
      <point x="28" y="-1"/>
      <point x="63" y="1"/>
      <point x="94" y="1" type="curve" smooth="yes"/>
      <point x="114" y="1"/>
      <point x="183" y="-1"/>
      <point x="204" y="-1" type="curve"/>
      <point x="205" y="7"/>
      <point x="205" y="11"/>
      <point x="204" y="19" type="curve"/>
      <point x="159" y="23"/>
      <point x="138" y="27"/>
      <point x="138" y="41" type="curve" smooth="yes"/>
      <point x="138" y="48"/>
      <point x="144" y="58"/>
      <point x="153" y="72" type="curve" smooth="yes"/>
      <point x="316" y="322" type="line"/>
    </contour>
    <contour>
      <point x="353" y="370" type="line"/>
      <point x="507" y="601" type="line" smooth="yes"/>
      <point x="551" y="668"/>
      <point x="568" y="676"/>
      <point x="629" y="681" type="curve"/>
      <point x="630" y="689"/>
      <point x="630" y="693"/>
      <point x="629" y="701" type="curve"/>
      <point x="612" y="701"/>
      <point x="572" y="699"/>
      <point x="541" y="699" type="curve" smooth="yes"/>
      <point x="520" y="699"/>
      <point x="455" y="701"/>
      <point x="434" y="701" type="curve"/>
      <point x="433" y="693"/>
      <point x="433" y="689"/>
      <point x="434" y="681" type="curve"/>
      <point x="477" y="676"/>
      <point x="496" y="673"/>
      <point x="496" y="659" type="curve" smooth="yes"/>
      <point x="496" y="652"/>
      <point x="492" y="643"/>
      <point x="482" y="628" type="curve" smooth="yes"/>
      <point x="333" y="400" type="line"/>
    </contour>
  </outline>
</glyph>
<glyph name="Y" format="2">
  <advance width="604"/>
  <unicode hex="0059"/>
  <unicode hex="0079"/>
  <outline>
    <contour>
      <point x="511" y="602" type="line" smooth="yes"/>
      <point x="550" y="672"/>
      <point x="556" y="676"/>
      <point x="617" y="681" type="curve"/>
      <point x="618" y="689"/>
      <point x="618" y="693"/>
      <point x="617" y="701" type="curve"/>
      <point x="587" y="701"/>
      <point x="557" y="699"/>
      <point x="527" y="699" type="curve" smooth="yes"/>
      <point x="503" y="699"/>
      <point x="455" y="701"/>
      <point x="431" y="701" type="curve"/>
      <point x="430" y="693"/>
      <point x="430" y="689"/>
      <point x="431" y="681" type="curve"/>
      <point x="479" y="677"/>
      <point x="498" y="673"/>
      <point x="498" y="658" type="curve" smooth="yes"/>
      <point x="498" y="651"/>
      <point x="493" y="642"/>
      <point x="484" y="626" type="curve" smooth="yes"/>
      <point x="324" y="335" type="line"/>
      <point x="333" y="334" type="line"/>
      <point x="172" y="626" type="line" smooth="yes"/>
      <point x="163" y="642"/>
      <point x="158" y="653"/>
      <point x="158" y="660" type="curve" smooth="yes"/>
      <point x="158" y="674"/>
      <point x="173" y="679"/>
      <point x="215" y="681" type="curve"/>
      <point x="216" y="689"/>
      <point x="216" y="693"/>
      <point x="215" y="701" type="curve"/>
      <point x="180" y="701"/>
      <point x="139" y="699"/>
      <point x="109" y="699" type="curve" smooth="yes"/>
      <point x="73" y="699"/>
      <point x="29" y="701"/>
      <point x="-5" y="701" type="curve"/>
      <point x="-6" y="693"/>
      <point x="-6" y="689"/>
      <point x="-5" y="681" type="curve"/>
      <point x="55" y="676"/>
      <point x="57" y="672"/>
      <point x="93" y="607" type="curve" smooth="yes"/>
      <point x="272" y="285" type="line"/>
      <point x="332" y="285" type="line"/>
    </contour>
    <contour>
      <point x="188" y="-1" type="curve"/>
      <point x="218" y="-1"/>
      <point x="276" y="1"/>
      <point x="304" y="1" type="curve" smooth="yes"/>
      <point x="331" y="1"/>
      <point x="390" y="-1"/>
      <point x="420" y="-1" type="curve"/>
      <point x="421" y="7"/>
      <point x="421" y="11"/>
      <point x="420" y="19" type="curve"/>
      <point x="346" y="24"/>
      <point x="344" y="25"/>
      <point x="344" y="86" type="curve" smooth="yes"/>
      <point x="344" y="315" type="line"/>
      <point x="264" y="315" type="line"/>
      <point x="264" y="77" type="line" smooth="yes"/>
      <point x="264" y="25"/>
      <point x="261" y="25"/>
      <point x="188" y="19" type="curve"/>
      <point x="187" y="11"/>
      <point x="187" y="7"/>
    </contour>
  </outline>
</glyph>
<glyph name="Z" format="2">
  <advance width="663"/>
  <unicode hex="005A"/>
  <unicode hex="007A"/>
  <outline>
    <contour>
      <point x="591" y="685" type="line"/>
      <point x="591" y="691"/>
      <point x="589" y="696"/>
      <point x="588" y="700" type="curve"/>
      <point x="555" y="700"/>
      <point x="505" y="698"/>
      <point x="358" y="698" type="curve" smooth="yes"/>
      <point x="263" y="698"/>
      <point x="177" y="698"/>
      <point x="98" y="701" type="curve"/>
      <point x="94" y="660"/>
      <point x="88" y="612"/>
      <point x="80" y="564" type="curve"/>
      <point x="88" y="563"/>
      <point x="92" y="563"/>
      <point x="100" y="564" type="curve"/>
      <point x="109" y="601"/>
      <point x="121" y="632"/>
      <point x="135" y="647" type="curve" smooth="yes"/>
      <point x="152" y="666"/>
      <point x="179" y="669"/>
      <point x="217" y="669" type="curve" smooth="yes"/>
      <point x="497" y="669" type="line"/>
      <point x="492" y="678" type="line"/>
      <point x="60" y="14" type="line"/>
      <point x="60" y="9"/>
      <point x="61" y="4"/>
      <point x="63" y="-1" type="curve"/>
      <point x="102" y="-1"/>
      <point x="144" y="1"/>
      <point x="287" y="1" type="curve" smooth="yes"/>
      <point x="466" y="1"/>
      <point x="556" y="0"/>
      <point x="575" y="0" type="curve"/>
      <point x="578" y="36"/>
      <point x="587" y="89"/>
      <point x="598" y="149" type="curve"/>
      <point x="591" y="150"/>
      <point x="587" y="150"/>
      <point x="580" y="149" type="curve"/>
      <point x="568" y="109"/>
      <point x="552" y="79"/>
      <point x="539" y="62" type="curve" smooth="yes"/>
      <point x="520" y="38"/>
      <point x="496" y="31"/>
      <point x="442" y="31" type="curve" smooth="yes"/>
      <point x="153" y="31" type="line"/>
      <point x="160" y="23" type="line"/>
    </contour>
  </outline>
</glyph>
<glyph name="bracketleft" format="2">
  <advance width="355"/>
  <unicode hex="005B"/>
  <outline>
    <contour>
      <point x="295" y="-109" type="line"/>
      <point x="295" y="-70" type="line"/>
      <point x="155" y="-70" type="line"/>
      <point x="155" y="769" type="line"/>
      <point x="295" y="769" type="line"/>
      <point x="295" y="807" type="line"/>
      <point x="90" y="807" type="line"/>
      <point x="90" y="-109" type="line"/>
    </contour>
  </outline>
</glyph>
<glyph name="exclamdown" format="2">
  <advance width="281"/>
  <unicode hex="00A1"/>
  <outline>
    <contour>
      <point x="80" y="30" type="line"/>
      <point x="80" y="4"/>
      <point x="98" y="-12"/>
      <point x="128" y="-12" type="curve" smooth="yes"/>
      <point x="159" y="-12"/>
      <point x="177" y="4"/>
      <point x="177" y="31" type="curve"/>
      <point x="141" y="538" type="line"/>
      <point x="133" y="539"/>
      <point x="123" y="539"/>
      <point x="115" y="538" type="curve"/>
    </contour>
    <contour>
      <point x="75" y="654" type="curve" smooth="yes"/>
      <point x="75" y="624"/>
      <point x="98" y="600"/>
      <point x="127" y="600" type="curve" smooth="yes"/>
      <point x="160" y="600"/>
      <point x="181" y="625"/>
      <point x="181" y="654" type="curve" smooth="yes"/>
      <point x="181" y="682"/>
      <point x="160" y="708"/>
      <point x="127" y="708" type="curve" smooth="yes"/>
      <point x="98" y="708"/>
      <point x="75" y="684"/>
    </contour>
  </outline>
</glyph>
<glyph name="cent" format="2">
  <advance width="477"/>
  <unicode hex="00A2"/>
  <outline>
    <contour>
      <point x="253" y="-2" type="line"/>
      <point x="264" y="-3"/>
      <point x="277" y="-3"/>
      <point x="288" y="-2" type="curve"/>
      <point x="288" y="636" type="line"/>
      <point x="276" y="637"/>
      <point x="265" y="637"/>
      <point x="253" y="636" type="curve"/>
    </contour>
    <contour>
      <point x="268" y="81" type="curve" smooth="yes"/>
      <point x="341" y="81"/>
      <point x="394" y="114"/>
      <point x="437" y="154" type="curve"/>
      <point x="436" y="159"/>
      <point x="432" y="165"/>
      <point x="429" y="170" type="curve"/>
      <point x="387" y="141"/>
      <point x="347" y="124"/>
      <point x="300" y="124" type="curve" smooth="yes"/>
      <point x="188" y="124"/>
      <point x="136" y="218"/>
      <point x="136" y="330" type="curve" smooth="yes"/>
      <point x="136" y="439"/>
      <point x="184" y="528"/>
      <point x="286" y="528" type="curve" smooth="yes"/>
      <point x="302" y="528"/>
      <point x="326" y="526"/>
      <point x="342" y="511" type="curve"/>
      <point x="333" y="521" type="line"/>
      <point x="334" y="470"/>
      <point x="358" y="442"/>
      <point x="392" y="442" type="curve" smooth="yes"/>
      <point x="419" y="442"/>
      <point x="433" y="459"/>
      <point x="433" y="479" type="curve" smooth="yes"/>
      <point x="433" y="519"/>
      <point x="379" y="557"/>
      <point x="291" y="557" type="curve" smooth="yes"/>
      <point x="145" y="557"/>
      <point x="55" y="449"/>
      <point x="55" y="312" type="curve" smooth="yes"/>
      <point x="55" y="176"/>
      <point x="144" y="81"/>
    </contour>
  </outline>
  <guideline angle="0" x="0" y="557"/>
  <guideline angle="0" x="0" y="81"/>
  <guideline angle="90" x="276" y="0"/>
</glyph>
<glyph name="sterling" format="2">
  <advance width="512"/>
  <unicode hex="00A3"/>
  <outline>
    <contour>
      <point x="287" y="682" type="curve" smooth="yes"/>
      <point x="296" y="682"/>
      <point x="326" y="681"/>
      <point x="349" y="666" type="curve"/>
      <point x="341" y="679" type="line"/>
      <point x="341" y="620"/>
      <point x="369" y="590"/>
      <point x="405" y="590" type="curve" smooth="yes"/>
      <point x="433" y="590"/>
      <point x="447" y="607"/>
      <point x="447" y="629" type="curve" smooth="yes"/>
      <point x="447" y="677"/>
      <point x="379" y="711"/>
      <point x="298" y="711" type="curve" smooth="yes"/>
      <point x="190" y="711"/>
      <point x="91" y="650"/>
      <point x="91" y="507" type="curve" smooth="yes"/>
      <point x="91" y="419"/>
      <point x="129" y="350"/>
      <point x="129" y="244" type="curve" smooth="yes"/>
      <point x="129" y="169"/>
      <point x="110" y="82"/>
      <point x="35" y="17" type="curve"/>
      <point x="35" y="12"/>
      <point x="36" y="5"/>
      <point x="38" y="0" type="curve"/>
      <point x="65" y="1"/>
      <point x="118" y="1"/>
      <point x="189" y="1" type="curve" smooth="yes"/>
      <point x="264" y="1"/>
      <point x="363" y="1"/>
      <point x="439" y="-1" type="curve"/>
      <point x="447" y="42"/>
      <point x="459" y="97"/>
      <point x="472" y="142" type="curve"/>
      <point x="466" y="144"/>
      <point x="462" y="145"/>
      <point x="455" y="145" type="curve"/>
      <point x="428" y="73"/>
      <point x="417" y="71"/>
      <point x="372" y="70" type="curve" smooth="yes"/>
      <point x="296" y="69"/>
      <point x="186" y="69"/>
      <point x="117" y="69" type="curve"/>
      <point x="117" y="71" type="line"/>
      <point x="182" y="140"/>
      <point x="202" y="196"/>
      <point x="202" y="275" type="curve" smooth="yes"/>
      <point x="202" y="376"/>
      <point x="170" y="438"/>
      <point x="170" y="522" type="curve" smooth="yes"/>
      <point x="170" y="622"/>
      <point x="215" y="682"/>
    </contour>
    <contour>
      <point x="388" y="324" type="line"/>
      <point x="389" y="336"/>
      <point x="389" y="347"/>
      <point x="388" y="357" type="curve"/>
      <point x="48" y="357" type="line"/>
      <point x="47" y="347"/>
      <point x="47" y="336"/>
      <point x="48" y="324" type="curve"/>
    </contour>
    <contour>
      <point x="388" y="222" type="line"/>
      <point x="389" y="234"/>
      <point x="389" y="245"/>
      <point x="388" y="255" type="curve"/>
      <point x="48" y="255" type="line"/>
      <point x="47" y="245"/>
      <point x="47" y="234"/>
      <point x="48" y="222" type="curve"/>
    </contour>
  </outline>
</glyph>
<glyph name="currency" format="2">
  <advance width="612"/>
  <unicode hex="00A4"/>
  <outline>
    <contour>
      <point x="306" y="155" type="curve" smooth="yes"/>
      <point x="411" y="155"/>
      <point x="501" y="236"/>
      <point x="501" y="350" type="curve" smooth="yes"/>
      <point x="501" y="462"/>
      <point x="416" y="546"/>
      <point x="306" y="546" type="curve" smooth="yes"/>
      <point x="202" y="546"/>
      <point x="111" y="466"/>
      <point x="111" y="350" type="curve" smooth="yes"/>
      <point x="111" y="253"/>
      <point x="184" y="155"/>
    </contour>
    <contour>
      <point x="190" y="203" type="line"/>
      <point x="157" y="231" type="line"/>
      <point x="80" y="161" type="line"/>
      <point x="90" y="149"/>
      <point x="104" y="135"/>
      <point x="115" y="125" type="curve"/>
    </contour>
    <contour>
      <point x="306" y="195" type="curve" smooth="yes"/>
      <point x="223" y="195"/>
      <point x="158" y="263"/>
      <point x="158" y="350" type="curve" smooth="yes"/>
      <point x="158" y="437"/>
      <point x="222" y="507"/>
      <point x="306" y="507" type="curve" smooth="yes"/>
      <point x="391" y="507"/>
      <point x="454" y="434"/>
      <point x="454" y="350" type="curve" smooth="yes"/>
      <point x="454" y="266"/>
      <point x="391" y="195"/>
    </contour>
    <contour>
      <point x="497" y="124" type="line"/>
      <point x="508" y="135"/>
      <point x="523" y="149"/>
      <point x="532" y="160" type="curve"/>
      <point x="455" y="234" type="line"/>
      <point x="424" y="200" type="line"/>
    </contour>
    <contour>
      <point x="188" y="500" type="line"/>
      <point x="115" y="577" type="line"/>
      <point x="104" y="566"/>
      <point x="89" y="551"/>
      <point x="80" y="541" type="curve"/>
      <point x="155" y="469" type="line"/>
    </contour>
    <contour>
      <point x="532" y="541" type="line"/>
      <point x="522" y="552"/>
      <point x="508" y="568"/>
      <point x="497" y="577" type="curve"/>
      <point x="422" y="499" type="line"/>
      <point x="458" y="470" type="line"/>
    </contour>
  </outline>
</glyph>
<glyph name="yen" format="2">
  <advance width="588"/>
  <unicode hex="00A5"/>
  <outline>
    <contour>
      <point x="485" y="602" type="line" smooth="yes"/>
      <point x="524" y="672"/>
      <point x="530" y="676"/>
      <point x="591" y="681" type="curve"/>
      <point x="592" y="689"/>
      <point x="592" y="693"/>
      <point x="591" y="701" type="curve"/>
      <point x="561" y="701"/>
      <point x="531" y="699"/>
      <point x="501" y="699" type="curve" smooth="yes"/>
      <point x="477" y="699"/>
      <point x="429" y="701"/>
      <point x="405" y="701" type="curve"/>
      <point x="404" y="693"/>
      <point x="404" y="689"/>
      <point x="405" y="681" type="curve"/>
      <point x="453" y="677"/>
      <point x="472" y="673"/>
      <point x="472" y="658" type="curve" smooth="yes"/>
      <point x="472" y="651"/>
      <point x="467" y="642"/>
      <point x="458" y="626" type="curve" smooth="yes"/>
      <point x="314" y="365" type="line"/>
      <point x="323" y="364" type="line"/>
      <point x="179" y="626" type="line" smooth="yes"/>
      <point x="170" y="642"/>
      <point x="165" y="653"/>
      <point x="165" y="660" type="curve" smooth="yes"/>
      <point x="165" y="674"/>
      <point x="179" y="679"/>
      <point x="222" y="681" type="curve"/>
      <point x="223" y="689"/>
      <point x="223" y="693"/>
      <point x="222" y="701" type="curve"/>
      <point x="187" y="701"/>
      <point x="146" y="699"/>
      <point x="116" y="699" type="curve" smooth="yes"/>
      <point x="80" y="699"/>
      <point x="36" y="701"/>
      <point x="2" y="701" type="curve"/>
      <point x="1" y="693"/>
      <point x="1" y="689"/>
      <point x="2" y="681" type="curve"/>
      <point x="62" y="676"/>
      <point x="64" y="672"/>
      <point x="100" y="607" type="curve" smooth="yes"/>
      <point x="262" y="315" type="line"/>
      <point x="322" y="315" type="line"/>
    </contour>
    <contour>
      <point x="178" y="-1" type="curve"/>
      <point x="208" y="-1"/>
      <point x="266" y="1"/>
      <point x="294" y="1" type="curve" smooth="yes"/>
      <point x="321" y="1"/>
      <point x="380" y="-1"/>
      <point x="410" y="-1" type="curve"/>
      <point x="411" y="7"/>
      <point x="411" y="11"/>
      <point x="410" y="19" type="curve"/>
      <point x="336" y="24"/>
      <point x="334" y="25"/>
      <point x="334" y="86" type="curve" smooth="yes"/>
      <point x="334" y="345" type="line"/>
      <point x="254" y="345" type="line"/>
      <point x="254" y="77" type="line" smooth="yes"/>
      <point x="254" y="25"/>
      <point x="251" y="25"/>
      <point x="178" y="19" type="curve"/>
      <point x="177" y="11"/>
      <point x="177" y="7"/>
    </contour>
    <contour>
      <point x="478" y="324" type="line"/>
      <point x="479" y="336"/>
      <point x="479" y="347"/>
      <point x="478" y="357" type="curve"/>
      <point x="108" y="357" type="line"/>
      <point x="107" y="347"/>
      <point x="107" y="336"/>
      <point x="108" y="324" type="curve"/>
    </contour>
    <contour>
      <point x="478" y="222" type="line"/>
      <point x="479" y="234"/>
      <point x="479" y="245"/>
      <point x="478" y="255" type="curve"/>
      <point x="108" y="255" type="line"/>
      <point x="107" y="245"/>
      <point x="107" y="234"/>
      <point x="108" y="222" type="curve"/>
    </contour>
  </outline>
</glyph>
<glyph name="brokenbar" format="2">
  <advance width="430"/>
  <unicode hex="00A6"/>
  <outline>
    <contour>
      <point x="190" y="199" type="line"/>
      <point x="190" y="-183" type="line"/>
      <point x="240" y="-183" type="line"/>
      <point x="240" y="199" type="line"/>
    </contour>
    <contour>
      <point x="240" y="329" type="line"/>
      <point x="240" y="711" type="line"/>
      <point x="190" y="711" type="line"/>
      <point x="190" y="329" type="line"/>
    </contour>
  </outline>
  <guideline angle="0" x="0" y="285"/>
</glyph>
<glyph name="section" format="2">
  <advance width="533"/>
  <unicode hex="00A7"/>
  <outline>
    <contour>
      <point x="373" y="-117" type="line"/>
      <point x="371" y="18"/>
      <point x="325" y="89"/>
      <point x="236" y="211" type="curve" smooth="yes"/>
      <point x="161" y="314"/>
      <point x="105" y="410"/>
      <point x="105" y="507" type="curve" smooth="yes"/>
      <point x="105" y="634"/>
      <point x="190" y="683"/>
      <point x="280" y="683" type="curve" smooth="yes"/>
      <point x="304" y="683"/>
      <point x="324" y="679"/>
      <point x="338" y="673" type="curve"/>
      <point x="339" y="634"/>
      <point x="357" y="601"/>
      <point x="390" y="601" type="curve" smooth="yes"/>
      <point x="413" y="601"/>
      <point x="427" y="616"/>
      <point x="427" y="637" type="curve" smooth="yes"/>
      <point x="427" y="681"/>
      <point x="361" y="711"/>
      <point x="287" y="711" type="curve" smooth="yes"/>
      <point x="169" y="711"/>
      <point x="60" y="645"/>
      <point x="60" y="464" type="curve" smooth="yes"/>
      <point x="60" y="327"/>
      <point x="128" y="236"/>
      <point x="221" y="121" type="curve" smooth="yes"/>
      <point x="284" y="43"/>
      <point x="333" y="-17"/>
      <point x="355" y="-140" type="curve"/>
    </contour>
    <contour>
      <point x="140" y="628" type="line"/>
      <point x="142" y="493"/>
      <point x="189" y="422"/>
      <point x="277" y="300" type="curve" smooth="yes"/>
      <point x="352" y="196"/>
      <point x="408" y="101"/>
      <point x="408" y="4" type="curve" smooth="yes"/>
      <point x="408" y="-123"/>
      <point x="323" y="-172"/>
      <point x="233" y="-172" type="curve" smooth="yes"/>
      <point x="209" y="-172"/>
      <point x="189" y="-168"/>
      <point x="175" y="-162" type="curve"/>
      <point x="174" y="-123"/>
      <point x="156" y="-90"/>
      <point x="123" y="-90" type="curve" smooth="yes"/>
      <point x="100" y="-90"/>
      <point x="86" y="-105"/>
      <point x="86" y="-126" type="curve" smooth="yes"/>
      <point x="86" y="-170"/>
      <point x="152" y="-200"/>
      <point x="226" y="-200" type="curve" smooth="yes"/>
      <point x="344" y="-200"/>
      <point x="453" y="-134"/>
      <point x="453" y="47" type="curve" smooth="yes"/>
      <point x="453" y="184"/>
      <point x="387" y="276"/>
      <point x="293" y="390" type="curve" smooth="yes"/>
      <point x="228" y="469"/>
      <point x="180" y="528"/>
      <point x="158" y="651" type="curve"/>
    </contour>
  </outline>
  <guideline angle="0" x="0" y="-200"/>
  <guideline angle="0" x="0" y="249"/>
  <guideline angle="90" x="630" y="0"/>
  <guideline angle="90" x="662" y="0"/>
  <guideline angle="90" x="60" y="0"/>
</glyph>
<glyph name="copyright" format="2">
  <advance width="845"/>
  <unicode hex="00A9"/>
  <outline>
    <contour>
      <point x="785" y="351" type="curve" smooth="yes"/>
      <point x="785" y="561"/>
      <point x="634" y="711"/>
      <point x="423" y="711" type="curve" smooth="yes"/>
      <point x="210" y="711"/>
      <point x="60" y="561"/>
      <point x="60" y="351" type="curve" smooth="yes"/>
      <point x="60" y="139"/>
      <point x="210" y="-12"/>
      <point x="423" y="-12" type="curve" smooth="yes"/>
      <point x="634" y="-12"/>
      <point x="785" y="138"/>
    </contour>
    <contour>
      <point x="742" y="351" type="curve" smooth="yes"/>
      <point x="742" y="155"/>
      <point x="616" y="21"/>
      <point x="423" y="21" type="curve" smooth="yes"/>
      <point x="229" y="21"/>
      <point x="101" y="155"/>
      <point x="101" y="351" type="curve" smooth="yes"/>
      <point x="101" y="544"/>
      <point x="229" y="679"/>
      <point x="423" y="679" type="curve" smooth="yes"/>
      <point x="616" y="679"/>
      <point x="742" y="544"/>
    </contour>
    <contour>
      <point x="589" y="277" type="curve"/>
      <point x="583" y="278"/>
      <point x="574" y="278"/>
      <point x="568" y="277" type="curve"/>
      <point x="552" y="193"/>
      <point x="505" y="155"/>
      <point x="439" y="155" type="curve" smooth="yes"/>
      <point x="331" y="155"/>
      <point x="282" y="246"/>
      <point x="282" y="351" type="curve" smooth="yes"/>
      <point x="282" y="452"/>
      <point x="327" y="546"/>
      <point x="433" y="546" type="curve" smooth="yes"/>
      <point x="503" y="546"/>
      <point x="554" y="511"/>
      <point x="567" y="424" type="curve"/>
      <point x="573" y="424"/>
      <point x="580" y="424"/>
      <point x="586" y="426" type="curve"/>
      <point x="583" y="472"/>
      <point x="581" y="516"/>
      <point x="580" y="555" type="curve"/>
      <point x="573" y="554"/>
      <point x="568" y="554"/>
      <point x="562" y="554" type="curve" smooth="yes"/>
      <point x="552" y="554"/>
      <point x="536" y="555"/>
      <point x="508" y="562" type="curve" smooth="yes"/>
      <point x="482" y="568"/>
      <point x="454" y="573"/>
      <point x="428" y="573" type="curve" smooth="yes"/>
      <point x="294" y="573"/>
      <point x="198" y="480"/>
      <point x="198" y="348" type="curve" smooth="yes"/>
      <point x="198" y="209"/>
      <point x="292" y="127"/>
      <point x="429" y="127" type="curve" smooth="yes"/>
      <point x="452" y="127"/>
      <point x="475" y="129"/>
      <point x="495" y="133" type="curve" smooth="yes"/>
      <point x="515" y="137"/>
      <point x="542" y="145"/>
      <point x="578" y="159" type="curve"/>
      <point x="581" y="199"/>
      <point x="585" y="240"/>
    </contour>
  </outline>
</glyph>
<glyph name="guillemotleft" format="2">
  <advance width="492"/>
  <unicode hex="00AB"/>
  <outline>
    <contour>
      <point x="132" y="345" type="line"/>
      <point x="171" y="380"/>
      <point x="237" y="458"/>
      <point x="268" y="511" type="curve"/>
      <point x="264" y="517"/>
      <point x="259" y="521"/>
      <point x="252" y="525" type="curve"/>
      <point x="201" y="473"/>
      <point x="128" y="413"/>
      <point x="62" y="366" type="curve"/>
      <point x="61" y="359"/>
      <point x="60" y="351"/>
      <point x="60" y="344" type="curve"/>
      <point x="60" y="342"/>
      <point x="60" y="338"/>
      <point x="61" y="335" type="curve"/>
      <point x="124" y="291"/>
      <point x="195" y="230"/>
      <point x="248" y="177" type="curve"/>
      <point x="255" y="181"/>
      <point x="259" y="184"/>
      <point x="263" y="190" type="curve"/>
      <point x="233" y="242"/>
      <point x="171" y="320"/>
      <point x="132" y="356" type="curve"/>
    </contour>
    <contour>
      <point x="307" y="346" type="line"/>
      <point x="344" y="379"/>
      <point x="408" y="453"/>
      <point x="437" y="503" type="curve"/>
      <point x="433" y="509"/>
      <point x="428" y="513"/>
      <point x="421" y="517" type="curve"/>
      <point x="372" y="468"/>
      <point x="302" y="411"/>
      <point x="239" y="366" type="curve"/>
      <point x="238" y="359"/>
      <point x="237" y="351"/>
      <point x="237" y="344" type="curve"/>
      <point x="237" y="342"/>
      <point x="237" y="338"/>
      <point x="238" y="335" type="curve"/>
      <point x="298" y="293"/>
      <point x="366" y="235"/>
      <point x="417" y="185" type="curve"/>
      <point x="424" y="189"/>
      <point x="428" y="192"/>
      <point x="432" y="198" type="curve"/>
      <point x="404" y="247"/>
      <point x="344" y="321"/>
      <point x="307" y="355" type="curve"/>
    </contour>
  </outline>
</glyph>
<glyph name="logicalnot" format="2">
  <advance width="509"/>
  <unicode hex="00AC"/>
  <outline>
    <contour>
      <point x="46" y="440" type="line"/>
      <point x="45" y="426"/>
      <point x="45" y="409"/>
      <point x="46" y="396" type="curve"/>
      <point x="414" y="396" type="line"/>
      <point x="414" y="210" type="line"/>
      <point x="427" y="209"/>
      <point x="446" y="209"/>
      <point x="458" y="210" type="curve"/>
      <point x="458" y="440" type="line"/>
    </contour>
  </outline>
</glyph>
<glyph name="paragraph" format="2">
  <advance width="583"/>
  <unicode hex="00B6"/>
  <outline>
    <contour>
      <point x="418" y="623" type="line" smooth="yes"/>
      <point x="418" y="676"/>
      <point x="421" y="676"/>
      <point x="492" y="682" type="curve"/>
      <point x="493" y="689"/>
      <point x="493" y="693"/>
      <point x="492" y="701" type="curve"/>
      <point x="461" y="701"/>
      <point x="407" y="699"/>
      <point x="379" y="699" type="curve" smooth="yes"/>
      <point x="350" y="699"/>
      <point x="295" y="701"/>
      <point x="251" y="701" type="curve" smooth="yes"/>
      <point x="137" y="701"/>
      <point x="45" y="632"/>
      <point x="45" y="513" type="curve" smooth="yes"/>
      <point x="45" y="374"/>
      <point x="158" y="320"/>
      <point x="287" y="320" type="curve"/>
      <point x="287" y="-192" type="line"/>
      <point x="325" y="-183" type="line"/>
      <point x="325" y="673" type="line"/>
      <point x="380" y="671" type="line"/>
      <point x="380" y="-171" type="line"/>
      <point x="418" y="-162" type="line"/>
    </contour>
  </outline>
  <guideline angle="0" x="0" y="-206"/>
  <guideline angle="12.9364" x="0" y="-258"/>
  <guideline angle="0" x="0" y="-162"/>
</glyph>
<glyph name="AE" format="2">
  <advance width="878"/>
  <unicode hex="00C6"/>
  <unicode hex="00E6"/>
  <outline>
    <contour>
      <point x="-35" y="-1" type="curve"/>
      <point x="-3" y="-1"/>
      <point x="29" y="1"/>
      <point x="56" y="1" type="curve" smooth="yes"/>
      <point x="83" y="1"/>
      <point x="135" y="-1"/>
      <point x="158" y="-1" type="curve"/>
      <point x="159" y="7"/>
      <point x="159" y="11"/>
      <point x="158" y="19" type="curve"/>
      <point x="111" y="21"/>
      <point x="92" y="29"/>
      <point x="92" y="47" type="curve" smooth="yes"/>
      <point x="92" y="57"/>
      <point x="98" y="69"/>
      <point x="108" y="87" type="curve" smooth="yes"/>
      <point x="440" y="682" type="line"/>
      <point x="403" y="684" type="line"/>
      <point x="75" y="101" type="line" smooth="yes"/>
      <point x="35" y="30"/>
      <point x="28" y="24"/>
      <point x="-35" y="19" type="curve"/>
      <point x="-36" y="12"/>
      <point x="-36" y="6"/>
    </contour>
    <contour>
      <point x="653" y="669" type="line"/>
      <point x="691" y="669"/>
      <point x="717" y="665"/>
      <point x="734" y="649" type="curve" smooth="yes"/>
      <point x="747" y="637"/>
      <point x="759" y="616"/>
      <point x="770" y="580" type="curve"/>
      <point x="777" y="579"/>
      <point x="782" y="579"/>
      <point x="790" y="580" type="curve"/>
      <point x="783" y="622"/>
      <point x="777" y="665"/>
      <point x="773" y="701" type="curve"/>
      <point x="761" y="701"/>
      <point x="627" y="699"/>
      <point x="512" y="699" type="curve" smooth="yes"/>
      <point x="429" y="699"/>
      <point x="389" y="701"/>
      <point x="339" y="701" type="curve"/>
      <point x="338" y="693"/>
      <point x="338" y="689"/>
      <point x="339" y="681" type="curve"/>
      <point x="378" y="680"/>
      <point x="395" y="678"/>
      <point x="422" y="669" type="curve"/>
    </contour>
    <contour>
      <point x="435" y="683" type="line"/>
      <point x="435" y="77" type="line" smooth="yes"/>
      <point x="435" y="25"/>
      <point x="432" y="25"/>
      <point x="364" y="19" type="curve"/>
      <point x="363" y="11"/>
      <point x="363" y="7"/>
      <point x="364" y="-1" type="curve"/>
      <point x="403" y="-1"/>
      <point x="425" y="1"/>
      <point x="493" y="1" type="curve" smooth="yes"/>
      <point x="543" y="1"/>
      <point x="704" y="0"/>
      <point x="791" y="0" type="curve"/>
      <point x="795" y="32"/>
      <point x="802" y="84"/>
      <point x="813" y="138" type="curve"/>
      <point x="805" y="139"/>
      <point x="801" y="139"/>
      <point x="794" y="138" type="curve"/>
      <point x="778" y="98"/>
      <point x="762" y="67"/>
      <point x="749" y="54" type="curve" smooth="yes"/>
      <point x="730" y="35"/>
      <point x="696" y="31"/>
      <point x="648" y="31" type="curve" smooth="yes"/>
      <point x="516" y="31" type="line"/>
      <point x="515" y="37"/>
      <point x="515" y="57"/>
      <point x="515" y="90" type="curve" smooth="yes"/>
      <point x="515" y="683" type="line"/>
    </contour>
    <contour>
      <point x="708" y="245" type="curve"/>
      <point x="717" y="244"/>
      <point x="722" y="244"/>
      <point x="729" y="245" type="curve"/>
      <point x="729" y="257"/>
      <point x="727" y="299"/>
      <point x="727" y="340" type="curve" smooth="yes"/>
      <point x="727" y="385"/>
      <point x="729" y="427"/>
      <point x="729" y="436" type="curve"/>
      <point x="722" y="437"/>
      <point x="716" y="437"/>
      <point x="708" y="436" type="curve"/>
      <point x="698" y="362"/>
      <point x="689" y="358"/>
      <point x="620" y="358" type="curve" smooth="yes"/>
      <point x="238" y="358" type="line"/>
      <point x="220" y="326" type="line"/>
      <point x="626" y="326" type="line" smooth="yes"/>
      <point x="689" y="326"/>
      <point x="699" y="324"/>
    </contour>
  </outline>
</glyph>
<glyph name="Oslash" format="2">
  <advance width="833"/>
  <unicode hex="00D8"/>
  <unicode hex="00F8"/>
  <outline>
    <contour>
      <point x="766" y="688" type="line"/>
      <point x="759" y="697"/>
      <point x="749" y="705"/>
      <point x="741" y="711" type="curve"/>
      <point x="67" y="11" type="line"/>
      <point x="73" y="4"/>
      <point x="81" y="-3"/>
      <point x="91" y="-12" type="curve"/>
    </contour>
    <contour>
      <point x="689" y="345" type="curve" smooth="yes"/>
      <point x="689" y="181"/>
      <point x="619" y="17"/>
      <point x="421" y="17" type="curve" smooth="yes"/>
      <point x="220" y="17"/>
      <point x="145" y="191"/>
      <point x="145" y="351" type="curve" smooth="yes"/>
      <point x="145" y="511"/>
      <point x="220" y="681"/>
      <point x="418" y="681" type="curve" smooth="yes"/>
      <point x="616" y="681"/>
      <point x="689" y="513"/>
    </contour>
    <contour>
      <point x="778" y="355" type="curve" smooth="yes"/>
      <point x="778" y="563"/>
      <point x="642" y="711"/>
      <point x="422" y="711" type="curve" smooth="yes"/>
      <point x="199" y="711"/>
      <point x="55" y="556"/>
      <point x="55" y="344" type="curve" smooth="yes"/>
      <point x="55" y="137"/>
      <point x="188" y="-12"/>
      <point x="411" y="-12" type="curve" smooth="yes"/>
      <point x="634" y="-12"/>
      <point x="778" y="140"/>
    </contour>
  </outline>
</glyph>
<glyph name="Thorn" format="2">
  <advance width="594"/>
  <unicode hex="00DE"/>
  <unicode hex="00FE"/>
  <outline>
    <contour>
      <point x="82" y="-1" type="curve"/>
      <point x="113" y="-1"/>
      <point x="167" y="1"/>
      <point x="195" y="1" type="curve" smooth="yes"/>
      <point x="223" y="1"/>
      <point x="282" y="-1"/>
      <point x="312" y="-1" type="curve"/>
      <point x="313" y="7"/>
      <point x="313" y="11"/>
      <point x="312" y="19" type="curve"/>
      <point x="237" y="24"/>
      <point x="235" y="25"/>
      <point x="235" y="86" type="curve" smooth="yes"/>
      <point x="235" y="623" type="line" smooth="yes"/>
      <point x="235" y="675"/>
      <point x="239" y="675"/>
      <point x="312" y="681" type="curve"/>
      <point x="313" y="689"/>
      <point x="313" y="693"/>
      <point x="312" y="701" type="curve"/>
      <point x="283" y="701"/>
      <point x="223" y="699"/>
      <point x="196" y="699" type="curve" smooth="yes"/>
      <point x="168" y="699"/>
      <point x="112" y="701"/>
      <point x="82" y="701" type="curve"/>
      <point x="81" y="693"/>
      <point x="81" y="689"/>
      <point x="82" y="681" type="curve"/>
      <point x="151" y="676"/>
      <point x="155" y="674"/>
      <point x="155" y="614" type="curve" smooth="yes"/>
      <point x="155" y="77" type="line" smooth="yes"/>
      <point x="155" y="25"/>
      <point x="152" y="25"/>
      <point x="82" y="19" type="curve"/>
      <point x="81" y="11"/>
      <point x="81" y="7"/>
    </contour>
    <contour>
      <point x="226" y="178" type="line"/>
      <point x="262" y="170"/>
      <point x="296" y="169"/>
      <point x="312" y="169" type="curve" smooth="yes"/>
      <point x="449" y="169"/>
      <point x="544" y="242"/>
      <point x="544" y="376" type="curve" smooth="yes"/>
      <point x="544" y="496"/>
      <point x="468" y="559"/>
      <point x="306" y="559" type="curve" smooth="yes"/>
      <point x="286" y="559"/>
      <point x="259" y="558"/>
      <point x="225" y="554" type="curve"/>
      <point x="225" y="524" type="line"/>
      <point x="253" y="527"/>
      <point x="275" y="529"/>
      <point x="295" y="529" type="curve" smooth="yes"/>
      <point x="403" y="529"/>
      <point x="457" y="469"/>
      <point x="457" y="371" type="curve" smooth="yes"/>
      <point x="457" y="267"/>
      <point x="396" y="200"/>
      <point x="285" y="200" type="curve" smooth="yes"/>
      <point x="272" y="200"/>
      <point x="255" y="201"/>
      <point x="226" y="207" type="curve"/>
    </contour>
  </outline>
</glyph>
<glyph name="Germandbls" format="2">
  <advance width="738"/>
  <unicode hex="00DF"/>
  <unicode hex="1E9E"/>
  <outline>
    <contour>
      <point x="463" y="377" type="line"/>
      <point x="632" y="663" type="line"/>
      <point x="631" y="669"/>
      <point x="630" y="672"/>
      <point x="628" y="676" type="curve"/>
      <point x="549" y="673" type="line"/>
      <point x="379" y="377" type="line"/>
      <point x="379" y="372"/>
      <point x="380" y="369"/>
      <point x="382" y="364" type="curve"/>
    </contour>
    <contour>
      <point x="382" y="364" type="line"/>
      <point x="505" y="343"/>
      <point x="601" y="296"/>
      <point x="601" y="164" type="curve" smooth="yes"/>
      <point x="601" y="72"/>
      <point x="553" y="16"/>
      <point x="477" y="16" type="curve" smooth="yes"/>
      <point x="409" y="16"/>
      <point x="345" y="60"/>
      <point x="331" y="146" type="curve"/>
      <point x="324" y="146"/>
      <point x="321" y="146"/>
      <point x="313" y="145" type="curve"/>
      <point x="316" y="92"/>
      <point x="319" y="42"/>
      <point x="319" y="3" type="curve"/>
      <point x="336" y="3"/>
      <point x="361" y="0"/>
      <point x="400" y="-5" type="curve" smooth="yes"/>
      <point x="448" y="-11"/>
      <point x="460" y="-12"/>
      <point x="476" y="-12" type="curve" smooth="yes"/>
      <point x="638" y="-12"/>
      <point x="688" y="89"/>
      <point x="688" y="174" type="curve" smooth="yes"/>
      <point x="688" y="304"/>
      <point x="585" y="355"/>
      <point x="445" y="382" type="curve"/>
    </contour>
    <contour>
      <point x="628" y="676" type="line"/>
      <point x="572" y="697"/>
      <point x="503" y="711"/>
      <point x="420" y="711" type="curve" smooth="yes"/>
      <point x="250" y="711"/>
      <point x="120" y="652"/>
      <point x="120" y="452" type="curve" smooth="yes"/>
      <point x="120" y="85" type="line" smooth="yes"/>
      <point x="120" y="25"/>
      <point x="117" y="24"/>
      <point x="48" y="19" type="curve"/>
      <point x="47" y="11"/>
      <point x="47" y="7"/>
      <point x="48" y="-1" type="curve"/>
      <point x="77" y="-1"/>
      <point x="133" y="1"/>
      <point x="155" y="1" type="curve" smooth="yes"/>
      <point x="171" y="1"/>
      <point x="190" y="0"/>
      <point x="199" y="0" type="curve"/>
      <point x="200" y="8"/>
      <point x="200" y="18"/>
      <point x="200" y="28" type="curve" smooth="yes"/>
      <point x="200" y="456" type="line" smooth="yes"/>
      <point x="200" y="638"/>
      <point x="312" y="677"/>
      <point x="427" y="677" type="curve" smooth="yes"/>
      <point x="490" y="677"/>
      <point x="561" y="665"/>
      <point x="606" y="647" type="curve"/>
    </contour>
  </outline>
</glyph>
<glyph name="Dcroat" format="2">
  <advance width="840"/>
  <unicode hex="0110"/>
  <unicode hex="0111"/>
  <outline>
    <contour>
      <point x="439" y="347" type="line"/>
      <point x="440" y="359"/>
      <point x="440" y="370"/>
      <point x="439" y="380" type="curve"/>
      <point x="84" y="380" type="line"/>
      <point x="83" y="370"/>
      <point x="83" y="359"/>
      <point x="84" y="347" type="curve"/>
    </contour>
    <contour>
      <point x="211" y="699" type="curve" smooth="yes"/>
      <point x="174" y="699"/>
      <point x="125" y="701"/>
      <point x="92" y="701" type="curve"/>
      <point x="91" y="693"/>
      <point x="91" y="689"/>
      <point x="92" y="681" type="curve"/>
      <point x="159" y="676"/>
      <point x="165" y="674"/>
      <point x="165" y="614" type="curve" smooth="yes"/>
      <point x="165" y="77" type="line" smooth="yes"/>
      <point x="165" y="24"/>
      <point x="162" y="25"/>
      <point x="94" y="19" type="curve"/>
      <point x="93" y="11"/>
      <point x="93" y="7"/>
      <point x="94" y="-1" type="curve"/>
      <point x="124" y="-1"/>
      <point x="179" y="1"/>
      <point x="210" y="1" type="curve" smooth="yes"/>
      <point x="241" y="1"/>
      <point x="323" y="-4"/>
      <point x="358" y="-4" type="curve" smooth="yes"/>
      <point x="606" y="-4"/>
      <point x="785" y="104"/>
      <point x="785" y="356" type="curve" smooth="yes"/>
      <point x="785" y="580"/>
      <point x="638" y="701"/>
      <point x="355" y="701" type="curve" smooth="yes"/>
      <point x="318" y="701"/>
      <point x="248" y="699"/>
    </contour>
    <contour>
      <point x="245" y="667" type="line"/>
      <point x="261" y="668"/>
      <point x="303" y="671"/>
      <point x="340" y="671" type="curve" smooth="yes"/>
      <point x="580" y="671"/>
      <point x="699" y="541"/>
      <point x="699" y="340" type="curve" smooth="yes"/>
      <point x="699" y="142"/>
      <point x="589" y="26"/>
      <point x="374" y="26" type="curve" smooth="yes"/>
      <point x="331" y="26"/>
      <point x="287" y="30"/>
      <point x="245" y="38" type="curve"/>
    </contour>
  </outline>
</glyph>
<glyph name="Lslash" format="2">
  <advance width="553"/>
  <unicode hex="0141"/>
  <unicode hex="0142"/>
  <outline>
    <contour>
      <point x="84" y="-1" type="curve"/>
      <point x="113" y="-1"/>
      <point x="169" y="1"/>
      <point x="197" y="1" type="curve" smooth="yes"/>
      <point x="291" y="1"/>
      <point x="419" y="0"/>
      <point x="513" y="0" type="curve"/>
      <point x="518" y="32"/>
      <point x="527" y="89"/>
      <point x="538" y="149" type="curve"/>
      <point x="531" y="150"/>
      <point x="527" y="150"/>
      <point x="520" y="149" type="curve"/>
      <point x="506" y="103"/>
      <point x="488" y="72"/>
      <point x="474" y="56" type="curve" smooth="yes"/>
      <point x="456" y="36"/>
      <point x="428" y="31"/>
      <point x="382" y="31" type="curve" smooth="yes"/>
      <point x="236" y="31" type="line"/>
      <point x="235" y="37"/>
      <point x="235" y="57"/>
      <point x="235" y="90" type="curve" smooth="yes"/>
      <point x="235" y="623" type="line" smooth="yes"/>
      <point x="235" y="676"/>
      <point x="237" y="675"/>
      <point x="307" y="681" type="curve"/>
      <point x="308" y="689"/>
      <point x="308" y="693"/>
      <point x="307" y="701" type="curve"/>
      <point x="278" y="701"/>
      <point x="221" y="699"/>
      <point x="195" y="699" type="curve" smooth="yes"/>
      <point x="168" y="699"/>
      <point x="114" y="701"/>
      <point x="84" y="701" type="curve"/>
      <point x="83" y="693"/>
      <point x="83" y="689"/>
      <point x="84" y="681" type="curve"/>
      <point x="151" y="676"/>
      <point x="155" y="674"/>
      <point x="155" y="614" type="curve" smooth="yes"/>
      <point x="155" y="77" type="line" smooth="yes"/>
      <point x="155" y="25"/>
      <point x="152" y="25"/>
      <point x="84" y="19" type="curve"/>
      <point x="83" y="11"/>
      <point x="83" y="7"/>
    </contour>
    <contour>
      <point x="395" y="420" type="line"/>
      <point x="391" y="431"/>
      <point x="388" y="441"/>
      <point x="382" y="449" type="curve"/>
      <point x="70" y="315" type="line"/>
      <point x="73" y="305"/>
      <point x="76" y="295"/>
      <point x="82" y="286" type="curve"/>
    </contour>
  </outline>
</glyph>
<glyph name="Eng" format="2">
  <advance width="839"/>
  <unicode hex="014A"/>
  <unicode hex="014B"/>
  <outline>
    <contour>
      <point x="662" y="-5" type="line"/>
      <point x="660" y="-62"/>
      <point x="647" y="-153"/>
      <point x="569" y="-173" type="curve"/>
      <point x="554" y="-145"/>
      <point x="532" y="-120"/>
      <point x="501" y="-120" type="curve" smooth="yes"/>
      <point x="476" y="-120"/>
      <point x="455" y="-136"/>
      <point x="455" y="-162" type="curve" smooth="yes"/>
      <point x="455" y="-193"/>
      <point x="485" y="-212"/>
      <point x="529" y="-212" type="curve" smooth="yes"/>
      <point x="573" y="-212"/>
      <point x="621" y="-195"/>
      <point x="654" y="-156" type="curve" smooth="yes"/>
      <point x="689" y="-114"/>
      <point x="704" y="-56"/>
      <point x="704" y="26" type="curve" smooth="yes"/>
      <point x="703" y="604" type="line" smooth="yes"/>
      <point x="703" y="669"/>
      <point x="706" y="673"/>
      <point x="776" y="681" type="curve"/>
      <point x="776" y="700" type="line"/>
      <point x="747" y="700"/>
      <point x="707" y="699"/>
      <point x="683" y="699" type="curve" smooth="yes"/>
      <point x="659" y="699"/>
      <point x="610" y="700"/>
      <point x="582" y="700" type="curve"/>
      <point x="581" y="693"/>
      <point x="581" y="689"/>
      <point x="582" y="681" type="curve"/>
      <point x="622" y="678"/>
      <point x="646" y="671"/>
      <point x="656" y="660" type="curve"/>
      <point x="666" y="650"/>
      <point x="666" y="631"/>
      <point x="666" y="595" type="curve" smooth="yes"/>
      <point x="666" y="121" type="line"/>
      <point x="220" y="700" type="line"/>
      <point x="203" y="699"/>
      <point x="175" y="699"/>
      <point x="171" y="699" type="curve" smooth="yes"/>
      <point x="137" y="699"/>
      <point x="102" y="701"/>
      <point x="72" y="701" type="curve"/>
      <point x="71" y="693"/>
      <point x="71" y="689"/>
      <point x="72" y="682" type="curve"/>
      <point x="146" y="674"/>
      <point x="150" y="669"/>
      <point x="150" y="592" type="curve" smooth="yes"/>
      <point x="150" y="95" type="line" smooth="yes"/>
      <point x="150" y="29"/>
      <point x="147" y="27"/>
      <point x="78" y="19" type="curve"/>
      <point x="77" y="11"/>
      <point x="77" y="7"/>
      <point x="78" y="-1" type="curve"/>
      <point x="106" y="-1"/>
      <point x="146" y="1"/>
      <point x="170" y="1" type="curve" smooth="yes"/>
      <point x="194" y="1"/>
      <point x="234" y="-1"/>
      <point x="263" y="-1" type="curve"/>
      <point x="264" y="7"/>
      <point x="264" y="11"/>
      <point x="263" y="19" type="curve"/>
      <point x="226" y="22"/>
      <point x="207" y="29"/>
      <point x="197" y="39" type="curve"/>
      <point x="188" y="49"/>
      <point x="187" y="67"/>
      <point x="187" y="104" type="curve" smooth="yes"/>
      <point x="187" y="610" type="line"/>
    </contour>
  </outline>
</glyph>
<glyph name="circumflexcomb" format="2">
  <unicode hex="0302"/>
  <outline>
    <contour>
      <point x="-293" y="821" type="line"/>
      <point x="-258" y="796"/>
      <point x="-207" y="767"/>
      <point x="-164" y="743" type="curve"/>
      <point x="-159" y="746"/>
      <point x="-155" y="752"/>
      <point x="-152" y="757" type="curve"/>
      <point x="-185" y="788"/>
      <point x="-234" y="840"/>
      <point x="-260" y="871" type="curve"/>
      <point x="-268" y="873"/>
      <point x="-277" y="874"/>
      <point x="-286" y="874" type="curve" smooth="yes"/>
      <point x="-296" y="874"/>
      <point x="-306" y="873"/>
      <point x="-313" y="871" type="curve"/>
      <point x="-339" y="840"/>
      <point x="-388" y="788"/>
      <point x="-421" y="757" type="curve"/>
      <point x="-418" y="752"/>
      <point x="-415" y="747"/>
      <point x="-409" y="743" type="curve"/>
      <point x="-367" y="767"/>
      <point x="-315" y="797"/>
      <point x="-280" y="820" type="curve"/>
    </contour>
  </outline>
</glyph>
<glyph name="macroncomb" format="2">
  <unicode hex="0304"/>
  <outline>
    <contour>
      <point x="-408" y="815" type="line"/>
      <point x="-410" y="803"/>
      <point x="-410" y="791"/>
      <point x="-408" y="779" type="curve"/>
      <point x="-164" y="779" type="line"/>
      <point x="-162" y="791"/>
      <point x="-162" y="803"/>
      <point x="-164" y="815" type="curve"/>
    </contour>
  </outline>
</glyph>
<glyph name="dotaccentcomb" format="2">
  <unicode hex="0307"/>
  <outline>
    <contour>
      <point x="-335" y="804" type="curve" smooth="yes"/>
      <point x="-335" y="778"/>
      <point x="-314" y="756"/>
      <point x="-287" y="756" type="curve" smooth="yes"/>
      <point x="-258" y="756"/>
      <point x="-237" y="780"/>
      <point x="-237" y="805" type="curve" smooth="yes"/>
      <point x="-237" y="830"/>
      <point x="-260" y="852"/>
      <point x="-286" y="852" type="curve" smooth="yes"/>
      <point x="-313" y="852"/>
      <point x="-335" y="830"/>
    </contour>
  </outline>
</glyph>
<glyph name="ringcomb" format="2">
  <unicode hex="030A"/>
  <outline>
    <contour>
      <point x="-387" y="819" type="curve" smooth="yes"/>
      <point x="-387" y="768"/>
      <point x="-341" y="744"/>
      <point x="-286" y="744" type="curve" smooth="yes"/>
      <point x="-233" y="744"/>
      <point x="-187" y="772"/>
      <point x="-187" y="821" type="curve" smooth="yes"/>
      <point x="-187" y="868"/>
      <point x="-226" y="896"/>
      <point x="-286" y="896" type="curve" smooth="yes"/>
      <point x="-339" y="896"/>
      <point x="-387" y="868"/>
    </contour>
    <contour>
      <point x="-286" y="875" type="curve" smooth="yes"/>
      <point x="-259" y="875"/>
      <point x="-243" y="853"/>
      <point x="-243" y="819" type="curve" smooth="yes"/>
      <point x="-243" y="786"/>
      <point x="-258" y="766"/>
      <point x="-286" y="766" type="curve" smooth="yes"/>
      <point x="-314" y="766"/>
      <point x="-331" y="788"/>
      <point x="-331" y="821" type="curve" smooth="yes"/>
      <point x="-331" y="854"/>
      <point x="-315" y="875"/>
    </contour>
  </outline>
</glyph>
<glyph name="hungarumlautcomb" format="2">
  <unicode hex="030B"/>
  <outline>
    <contour>
      <point x="-251" y="840" type="curve"/>
      <point x="-271" y="860"/>
      <point x="-303" y="878"/>
      <point x="-313" y="876" type="curve"/>
      <point x="-324" y="849"/>
      <point x="-351" y="784"/>
      <point x="-365" y="754" type="curve"/>
      <point x="-359" y="748"/>
      <point x="-354" y="744"/>
      <point x="-348" y="743" type="curve"/>
      <point x="-326" y="765"/>
      <point x="-271" y="823"/>
    </contour>
    <contour>
      <point x="-120" y="840" type="curve"/>
      <point x="-140" y="860"/>
      <point x="-172" y="878"/>
      <point x="-182" y="876" type="curve"/>
      <point x="-194" y="849"/>
      <point x="-225" y="784"/>
      <point x="-240" y="754" type="curve"/>
      <point x="-234" y="748"/>
      <point x="-229" y="744"/>
      <point x="-223" y="743" type="curve"/>
      <point x="-200" y="765"/>
      <point x="-141" y="823"/>
    </contour>
  </outline>
</glyph>
<glyph name="candrabinducomb" format="2">
  <unicode hex="0310"/>
  <outline>
    <contour>
      <point x="-399" y="876" type="curve"/>
      <point x="-406" y="875"/>
      <point x="-412" y="874"/>
      <point x="-419" y="871" type="curve"/>
      <point x="-407" y="789"/>
      <point x="-358" y="743"/>
      <point x="-286" y="743" type="curve" smooth="yes"/>
      <point x="-215" y="743"/>
      <point x="-165" y="789"/>
      <point x="-154" y="871" type="curve"/>
      <point x="-161" y="874"/>
      <point x="-167" y="875"/>
      <point x="-174" y="876" type="curve"/>
      <point x="-191" y="825"/>
      <point x="-226" y="801"/>
      <point x="-287" y="801" type="curve" smooth="yes"/>
      <point x="-347" y="801"/>
      <point x="-382" y="825"/>
    </contour>
    <contour>
      <point x="-328" y="885" type="curve" smooth="yes"/>
      <point x="-328" y="862"/>
      <point x="-310" y="844"/>
      <point x="-286" y="844" type="curve" smooth="yes"/>
      <point x="-262" y="844"/>
      <point x="-244" y="863"/>
      <point x="-244" y="885" type="curve" smooth="yes"/>
      <point x="-244" y="909"/>
      <point x="-263" y="927"/>
      <point x="-286" y="927" type="curve" smooth="yes"/>
      <point x="-310" y="927"/>
      <point x="-328" y="909"/>
    </contour>
  </outline>
</glyph>
<glyph name="dotbelowcomb" format="2">
  <unicode hex="0323"/>
  <outline>
    <contour>
      <point x="-335" y="-105" type="curve" smooth="yes"/>
      <point x="-335" y="-131"/>
      <point x="-314" y="-153"/>
      <point x="-287" y="-153" type="curve" smooth="yes"/>
      <point x="-258" y="-153"/>
      <point x="-237" y="-129"/>
      <point x="-237" y="-104" type="curve" smooth="yes"/>
      <point x="-237" y="-79"/>
      <point x="-260" y="-57"/>
      <point x="-286" y="-57" type="curve" smooth="yes"/>
      <point x="-313" y="-57"/>
      <point x="-335" y="-79"/>
    </contour>
  </outline>
</glyph>
<glyph name="dieresisbelowcomb" format="2">
  <unicode hex="0324"/>
  <outline>
    <contour>
      <point x="-422" y="-104" type="curve" smooth="yes"/>
      <point x="-422" y="-130"/>
      <point x="-405" y="-149"/>
      <point x="-378" y="-149" type="curve" smooth="yes"/>
      <point x="-351" y="-149"/>
      <point x="-333" y="-130"/>
      <point x="-333" y="-104" type="curve" smooth="yes"/>
      <point x="-333" y="-79"/>
      <point x="-351" y="-60"/>
      <point x="-378" y="-60" type="curve" smooth="yes"/>
      <point x="-405" y="-60"/>
      <point x="-422" y="-79"/>
    </contour>
    <contour>
      <point x="-240" y="-104" type="curve" smooth="yes"/>
      <point x="-240" y="-130"/>
      <point x="-222" y="-149"/>
      <point x="-195" y="-149" type="curve" smooth="yes"/>
      <point x="-168" y="-149"/>
      <point x="-151" y="-130"/>
      <point x="-151" y="-104" type="curve" smooth="yes"/>
      <point x="-151" y="-79"/>
      <point x="-168" y="-60"/>
      <point x="-195" y="-60" type="curve" smooth="yes"/>
      <point x="-222" y="-60"/>
      <point x="-240" y="-79"/>
    </contour>
  </outline>
</glyph>
<glyph name="brevebelowcomb" format="2">
  <unicode hex="032E"/>
  <outline>
    <contour>
      <point x="-396" y="-39" type="curve"/>
      <point x="-403" y="-40"/>
      <point x="-409" y="-41"/>
      <point x="-416" y="-44" type="curve"/>
      <point x="-404" y="-126"/>
      <point x="-356" y="-172"/>
      <point x="-286" y="-172" type="curve" smooth="yes"/>
      <point x="-217" y="-172"/>
      <point x="-168" y="-126"/>
      <point x="-157" y="-44" type="curve"/>
      <point x="-164" y="-41"/>
      <point x="-170" y="-40"/>
      <point x="-177" y="-39" type="curve"/>
      <point x="-194" y="-90"/>
      <point x="-228" y="-113"/>
      <point x="-287" y="-113" type="curve" smooth="yes"/>
      <point x="-345" y="-113"/>
      <point x="-379" y="-90"/>
    </contour>
  </outline>
</glyph>
<glyph name="daggerdbl" format="2">
  <advance width="529"/>
  <unicode hex="2021"/>
  <outline>
    <contour>
      <point x="265" y="-183" type="curve" smooth="yes"/>
      <point x="285" y="-183"/>
      <point x="304" y="-170"/>
      <point x="304" y="-143" type="curve" smooth="yes"/>
      <point x="304" y="-126"/>
      <point x="277" y="-17"/>
      <point x="277" y="99" type="curve" smooth="yes"/>
      <point x="277" y="178"/>
      <point x="305" y="252"/>
      <point x="305" y="263" type="curve" smooth="yes"/>
      <point x="305" y="275"/>
      <point x="277" y="347"/>
      <point x="277" y="431" type="curve" smooth="yes"/>
      <point x="277" y="544"/>
      <point x="304" y="652"/>
      <point x="304" y="670" type="curve" smooth="yes"/>
      <point x="304" y="696"/>
      <point x="285" y="711"/>
      <point x="265" y="711" type="curve" smooth="yes"/>
      <point x="244" y="711"/>
      <point x="224" y="696"/>
      <point x="224" y="670" type="curve" smooth="yes"/>
      <point x="224" y="652"/>
      <point x="253" y="544"/>
      <point x="253" y="431" type="curve" smooth="yes"/>
      <point x="253" y="347"/>
      <point x="223" y="275"/>
      <point x="223" y="263" type="curve" smooth="yes"/>
      <point x="223" y="252"/>
      <point x="253" y="178"/>
      <point x="253" y="99" type="curve" smooth="yes"/>
      <point x="253" y="-17"/>
      <point x="224" y="-126"/>
      <point x="224" y="-143" type="curve" smooth="yes"/>
      <point x="224" y="-170"/>
      <point x="244" y="-183"/>
    </contour>
    <contour>
      <point x="89" y="61" type="curve" smooth="yes"/>
      <point x="106" y="61"/>
      <point x="175" y="87"/>
      <point x="265" y="87" type="curve" smooth="yes"/>
      <point x="352" y="87"/>
      <point x="423" y="61"/>
      <point x="440" y="61" type="curve" smooth="yes"/>
      <point x="461" y="61"/>
      <point x="474" y="79"/>
      <point x="474" y="99" type="curve" smooth="yes"/>
      <point x="474" y="117"/>
      <point x="461" y="136"/>
      <point x="440" y="136" type="curve" smooth="yes"/>
      <point x="419" y="136"/>
      <point x="359" y="107"/>
      <point x="265" y="107" type="curve" smooth="yes"/>
      <point x="174" y="107"/>
      <point x="106" y="136"/>
      <point x="89" y="136" type="curve" smooth="yes"/>
      <point x="68" y="136"/>
      <point x="55" y="117"/>
      <point x="55" y="99" type="curve" smooth="yes"/>
      <point x="55" y="79"/>
      <point x="68" y="61"/>
    </contour>
    <contour>
      <point x="89" y="391" type="curve" smooth="yes"/>
      <point x="106" y="391"/>
      <point x="175" y="421"/>
      <point x="265" y="421" type="curve" smooth="yes"/>
      <point x="352" y="421"/>
      <point x="423" y="391"/>
      <point x="440" y="391" type="curve" smooth="yes"/>
      <point x="461" y="391"/>
      <point x="474" y="409"/>
      <point x="474" y="429" type="curve" smooth="yes"/>
      <point x="474" y="449"/>
      <point x="461" y="466"/>
      <point x="440" y="466" type="curve" smooth="yes"/>
      <point x="419" y="466"/>
      <point x="359" y="440"/>
      <point x="265" y="440" type="curve" smooth="yes"/>
      <point x="174" y="440"/>
      <point x="106" y="466"/>
      <point x="89" y="466" type="curve" smooth="yes"/>
      <point x="68" y="466"/>
      <point x="55" y="449"/>
      <point x="55" y="429" type="curve" smooth="yes"/>
      <point x="55" y="409"/>
      <point x="68" y="391"/>
    </contour>
  </outline>
  <guideline angle="0" x="0" y="-183"/>
  <guideline angle="90" x="40" y="0"/>
</glyph>
<glyph name="bullet" format="2">
  <advance width="351"/>
  <unicode hex="2022"/>
  <outline>
    <contour>
      <point x="70" y="364" type="curve" smooth="yes"/>
      <point x="70" y="306"/>
      <point x="116" y="259"/>
      <point x="175" y="259" type="curve" smooth="yes"/>
      <point x="234" y="259"/>
      <point x="281" y="306"/>
      <point x="281" y="364" type="curve" smooth="yes"/>
      <point x="281" y="423"/>
      <point x="234" y="470"/>
      <point x="175" y="470" type="curve" smooth="yes"/>
      <point x="116" y="470"/>
      <point x="70" y="423"/>
    </contour>
    <contour>
      <point x="108" y="364" type="curve" smooth="yes"/>
      <point x="108" y="403"/>
      <point x="136" y="433"/>
      <point x="175" y="433" type="curve" smooth="yes"/>
      <point x="214" y="433"/>
      <point x="243" y="403"/>
      <point x="243" y="364" type="curve" smooth="yes"/>
      <point x="243" y="326"/>
      <point x="214" y="296"/>
      <point x="175" y="296" type="curve" smooth="yes"/>
      <point x="136" y="296"/>
      <point x="108" y="326"/>
    </contour>
  </outline>
</glyph>
<glyph name="guilsinglleft" format="2">
  <advance width="333"/>
  <unicode hex="2039"/>
  <outline>
    <contour>
      <point x="137" y="345" type="line"/>
      <point x="177" y="380"/>
      <point x="246" y="458"/>
      <point x="278" y="511" type="curve"/>
      <point x="274" y="517"/>
      <point x="269" y="521"/>
      <point x="262" y="525" type="curve"/>
      <point x="208" y="473"/>
      <point x="131" y="413"/>
      <point x="62" y="366" type="curve"/>
      <point x="61" y="359"/>
      <point x="60" y="351"/>
      <point x="60" y="344" type="curve"/>
      <point x="60" y="342"/>
      <point x="60" y="338"/>
      <point x="61" y="335" type="curve"/>
      <point x="127" y="291"/>
      <point x="202" y="230"/>
      <point x="258" y="177" type="curve"/>
      <point x="265" y="181"/>
      <point x="269" y="184"/>
      <point x="273" y="190" type="curve"/>
      <point x="242" y="242"/>
      <point x="177" y="320"/>
      <point x="137" y="356" type="curve"/>
    </contour>
  </outline>
</glyph>
<glyph name="fraction" format="2">
  <advance width="101"/>
  <unicode hex="2044"/>
  <outline>
    <contour>
      <point x="302" y="667" type="line"/>
      <point x="294" y="675"/>
      <point x="283" y="683"/>
      <point x="274" y="688" type="curve"/>
      <point x="-202" y="12" type="line"/>
      <point x="-193" y="4"/>
      <point x="-182" y="-4"/>
      <point x="-173" y="-9" type="curve"/>
    </contour>
  </outline>
</glyph>
<glyph name="zerosuperior" format="2">
  <advance width="406"/>
  <unicode hex="2070"/>
  <outline>
    <contour>
      <point x="362" y="543" type="curve" smooth="yes"/>
      <point x="362" y="655"/>
      <point x="318" y="755"/>
      <point x="207" y="755" type="curve" smooth="yes"/>
      <point x="93" y="755"/>
      <point x="44" y="651"/>
      <point x="44" y="536" type="curve" smooth="yes"/>
      <point x="44" y="416"/>
      <point x="100" y="324"/>
      <point x="202" y="324" type="curve" smooth="yes"/>
      <point x="306" y="324"/>
      <point x="362" y="416"/>
    </contour>
    <contour>
      <point x="202" y="731" type="curve" smooth="yes"/>
      <point x="277" y="731"/>
      <point x="300" y="631"/>
      <point x="300" y="533" type="curve" smooth="yes"/>
      <point x="300" y="433"/>
      <point x="277" y="348"/>
      <point x="206" y="348" type="curve" smooth="yes"/>
      <point x="132" y="348"/>
      <point x="107" y="452"/>
      <point x="107" y="548" type="curve" smooth="yes"/>
      <point x="107" y="645"/>
      <point x="132" y="731"/>
    </contour>
  </outline>
</glyph>
<glyph name="sixsuperior" format="2">
  <advance width="387"/>
  <unicode hex="2076"/>
  <outline>
    <contour>
      <point x="196" y="324" type="curve" smooth="yes"/>
      <point x="270" y="324"/>
      <point x="346" y="370"/>
      <point x="346" y="464" type="curve" smooth="yes"/>
      <point x="346" y="552"/>
      <point x="280" y="589"/>
      <point x="213" y="589" type="curve" smooth="yes"/>
      <point x="179" y="589"/>
      <point x="141" y="580"/>
      <point x="113" y="561" type="curve"/>
      <point x="107" y="532" type="line"/>
      <point x="132" y="550"/>
      <point x="159" y="559"/>
      <point x="185" y="559" type="curve" smooth="yes"/>
      <point x="233" y="559"/>
      <point x="279" y="526"/>
      <point x="279" y="448" type="curve" smooth="yes"/>
      <point x="279" y="374"/>
      <point x="238" y="348"/>
      <point x="201" y="348" type="curve" smooth="yes"/>
      <point x="156" y="348"/>
      <point x="110" y="389"/>
      <point x="110" y="499" type="curve" smooth="yes"/>
      <point x="110" y="627"/>
      <point x="172" y="734"/>
      <point x="292" y="734" type="curve" smooth="yes"/>
      <point x="302" y="734"/>
      <point x="309" y="734"/>
      <point x="318" y="733" type="curve"/>
      <point x="320" y="741"/>
      <point x="320" y="746"/>
      <point x="319" y="754" type="curve"/>
      <point x="309" y="755"/>
      <point x="300" y="755"/>
      <point x="295" y="755" type="curve" smooth="yes"/>
      <point x="126" y="755"/>
      <point x="45" y="620"/>
      <point x="45" y="493" type="curve" smooth="yes"/>
      <point x="45" y="369"/>
      <point x="124" y="324"/>
    </contour>
  </outline>
</glyph>
<glyph name="rupees" format="2">
  <advance width="1039"/>
  <unicode hex="20A8"/>
  <outline>
    <contour>
      <point x="223" y="329" type="line"/>
      <point x="259" y="326" type="line" smooth="yes"/>
      <point x="305" y="322"/>
      <point x="318" y="317"/>
      <point x="352" y="270" type="curve" smooth="yes"/>
      <point x="402" y="200"/>
      <point x="493" y="50"/>
      <point x="522" y="0" type="curve"/>
      <point x="537" y="0"/>
      <point x="551" y="1"/>
      <point x="567" y="1" type="curve" smooth="yes"/>
      <point x="585" y="1"/>
      <point x="629" y="0"/>
      <point x="645" y="-1" type="curve"/>
      <point x="662" y="19" type="line"/>
      <point x="607" y="22"/>
      <point x="599" y="26"/>
      <point x="552" y="98" type="curve" smooth="yes"/>
      <point x="512" y="158"/>
      <point x="470" y="231"/>
      <point x="426" y="289" type="curve" smooth="yes"/>
      <point x="404" y="318"/>
      <point x="393" y="326"/>
      <point x="373" y="337" type="curve"/>
      <point x="373" y="348" type="line"/>
      <point x="368" y="338" type="line"/>
      <point x="466" y="369"/>
      <point x="530" y="429"/>
      <point x="530" y="529" type="curve" smooth="yes"/>
      <point x="530" y="654"/>
      <point x="431" y="701"/>
      <point x="320" y="701" type="curve" smooth="yes"/>
      <point x="297" y="701"/>
      <point x="220" y="699"/>
      <point x="195" y="699" type="curve" smooth="yes"/>
      <point x="169" y="699"/>
      <point x="115" y="701"/>
      <point x="87" y="701" type="curve"/>
      <point x="86" y="693"/>
      <point x="86" y="689"/>
      <point x="87" y="681" type="curve"/>
      <point x="150" y="676"/>
      <point x="155" y="674"/>
      <point x="155" y="615" type="curve" smooth="yes"/>
      <point x="155" y="77" type="line" smooth="yes"/>
      <point x="155" y="24"/>
      <point x="152" y="24"/>
      <point x="87" y="19" type="curve"/>
      <point x="86" y="11"/>
      <point x="86" y="7"/>
      <point x="87" y="-1" type="curve"/>
      <point x="115" y="-1"/>
      <point x="167" y="1"/>
      <point x="194" y="1" type="curve" smooth="yes"/>
      <point x="221" y="1"/>
      <point x="271" y="-1"/>
      <point x="300" y="-1" type="curve"/>
      <point x="301" y="7"/>
      <point x="301" y="11"/>
      <point x="300" y="19" type="curve"/>
      <point x="238" y="24"/>
      <point x="235" y="25"/>
      <point x="235" y="86" type="curve" smooth="yes"/>
      <point x="235" y="669" type="line"/>
      <point x="255" y="671"/>
      <point x="275" y="672"/>
      <point x="289" y="672" type="curve" smooth="yes"/>
      <point x="391" y="672"/>
      <point x="444" y="618"/>
      <point x="444" y="518" type="curve" smooth="yes"/>
      <point x="444" y="406"/>
      <point x="377" y="355"/>
      <point x="275" y="355" type="curve" smooth="yes"/>
      <point x="260" y="355"/>
      <point x="246" y="356"/>
      <point x="223" y="360" type="curve"/>
    </contour>
    <contour>
      <point x="645" y="-1" type="curve"/>
      <point x="664" y="-2"/>
      <point x="681" y="-2"/>
      <point x="717" y="-6" type="curve" smooth="yes"/>
      <point x="759" y="-10"/>
      <point x="776" y="-12"/>
      <point x="796" y="-12" type="curve" smooth="yes"/>
      <point x="914" y="-12"/>
      <point x="972" y="60"/>
      <point x="972" y="139" type="curve" smooth="yes"/>
      <point x="972" y="228"/>
      <point x="899" y="273"/>
      <point x="833" y="313" type="curve" smooth="yes"/>
      <point x="762" y="356"/>
      <point x="712" y="387"/>
      <point x="712" y="446" type="curve" smooth="yes"/>
      <point x="712" y="503"/>
      <point x="756" y="532"/>
      <point x="812" y="532" type="curve" smooth="yes"/>
      <point x="844" y="532"/>
      <point x="874" y="522"/>
      <point x="891" y="505" type="curve" smooth="yes"/>
      <point x="908" y="488"/>
      <point x="924" y="456"/>
      <point x="930" y="416" type="curve"/>
      <point x="936" y="416"/>
      <point x="942" y="416"/>
      <point x="949" y="417" type="curve"/>
      <point x="942" y="551" type="line"/>
      <point x="934" y="550"/>
      <point x="928" y="550"/>
      <point x="925" y="550" type="curve" smooth="yes"/>
      <point x="914" y="550"/>
      <point x="900" y="551"/>
      <point x="879" y="554" type="curve" smooth="yes"/>
      <point x="857" y="557"/>
      <point x="843" y="560"/>
      <point x="820" y="560" type="curve" smooth="yes"/>
      <point x="718" y="560"/>
      <point x="643" y="503"/>
      <point x="643" y="417" type="curve" smooth="yes"/>
      <point x="643" y="338"/>
      <point x="706" y="297"/>
      <point x="779" y="256" type="curve" smooth="yes"/>
      <point x="851" y="215"/>
      <point x="905" y="182"/>
      <point x="905" y="113" type="curve" smooth="yes"/>
      <point x="905" y="54"/>
      <point x="866" y="16"/>
      <point x="798" y="16" type="curve" smooth="yes"/>
      <point x="727" y="16"/>
      <point x="671" y="59"/>
      <point x="659" y="145" type="curve"/>
      <point x="653" y="145"/>
      <point x="647" y="145"/>
      <point x="640" y="144" type="curve"/>
      <point x="644" y="91"/>
      <point x="644" y="40"/>
    </contour>
  </outline>
</glyph>
<glyph name="rupee" format="2">
  <advance width="541"/>
  <unicode hex="20B9"/>
  <outline>
    <contour>
      <point x="505" y="-1" type="curve"/>
      <point x="506" y="6"/>
      <point x="506" y="12"/>
      <point x="505" y="19" type="curve"/>
      <point x="441" y="22"/>
      <point x="423" y="30"/>
      <point x="377" y="101" type="curve" smooth="yes"/>
      <point x="260" y="282" type="line" smooth="yes"/>
      <point x="240" y="312"/>
      <point x="216" y="327"/>
      <point x="202" y="333" type="curve"/>
      <point x="202" y="348" type="line"/>
      <point x="84" y="333" type="line"/>
      <point x="124" y="333"/>
      <point x="142" y="324"/>
      <point x="165" y="290" type="curve" smooth="yes"/>
      <point x="227" y="198"/>
      <point x="289" y="99"/>
      <point x="350" y="0" type="curve"/>
      <point x="365" y="0"/>
      <point x="376" y="1"/>
      <point x="391" y="1" type="curve" smooth="yes"/>
      <point x="413" y="1"/>
      <point x="478" y="-1"/>
    </contour>
    <contour>
      <point x="474" y="499" type="line"/>
      <point x="474" y="531" type="line"/>
      <point x="75" y="531" type="line"/>
      <point x="75" y="499" type="line"/>
    </contour>
    <contour>
      <point x="183" y="333" type="line"/>
      <point x="317" y="346"/>
      <point x="405" y="404"/>
      <point x="405" y="524" type="curve" smooth="yes"/>
      <point x="405" y="589"/>
      <point x="376" y="636"/>
      <point x="309" y="664" type="curve"/>
      <point x="323" y="692" type="line"/>
      <point x="180" y="666" type="line"/>
      <point x="260" y="666"/>
      <point x="320" y="624"/>
      <point x="320" y="519" type="curve" smooth="yes"/>
      <point x="320" y="428"/>
      <point x="275" y="366"/>
      <point x="175" y="366" type="curve" smooth="yes"/>
      <point x="75" y="366" type="line"/>
      <point x="75" y="333" type="line"/>
    </contour>
    <contour>
      <point x="468" y="666" type="line"/>
      <point x="468" y="699" type="line"/>
      <point x="75" y="699" type="line"/>
      <point x="75" y="666" type="line"/>
    </contour>
  </outline>
</glyph>
<glyph name="G_macronbelowcomb_H_macronbelowcomb" format="2">
  <advance width="1677"/>
  <outline>
    <component base="G"/>
    <component base="H" xOffset="808"/>
    <contour>
      <point x="173" y="-90" type="line"/>
      <point x="172" y="-102"/>
      <point x="172" y="-115"/>
      <point x="173" y="-126" type="curve"/>
      <point x="1427" y="-126" type="line"/>
      <point x="1428" y="-115"/>
      <point x="1428" y="-102"/>
      <point x="1427" y="-90" type="curve"/>
    </contour>
  </outline>
  <guideline angle="90" x="1424" y="0"/>
</glyph>
<glyph name="Klinebelow_H_macronbelowcomb" format="2">
  <advance width="1556"/>
  <outline>
    <component base="K"/>
    <component base="H" xOffset="667"/>
    <contour>
      <point x="260" y="-90" type="line"/>
      <point x="259" y="-102"/>
      <point x="259" y="-115"/>
      <point x="260" y="-126" type="curve"/>
      <point x="1296" y="-126" type="line"/>
      <point x="1297" y="-115"/>
      <point x="1297" y="-102"/>
      <point x="1296" y="-90" type="curve"/>
    </contour>
  </outline>
  <guideline angle="90" x="260" y="0"/>
  <guideline angle="90" x="1296" y="0"/>
</glyph>
<glyph name="four.numr" format="2">
  <advance width="341"/>
  <outline>
    <contour>
      <point x="229" y="336" type="curve" smooth="yes"/>
      <point x="240" y="336"/>
      <point x="250" y="336"/>
      <point x="258" y="337" type="curve"/>
      <point x="258" y="645" type="line" smooth="yes"/>
      <point x="258" y="656"/>
      <point x="258" y="668"/>
      <point x="259" y="695" type="curve"/>
      <point x="247" y="698"/>
      <point x="231" y="699"/>
      <point x="216" y="699" type="curve"/>
      <point x="148" y="617"/>
      <point x="83" y="542"/>
      <point x="19" y="456" type="curve"/>
      <point x="19" y="448"/>
      <point x="20" y="435"/>
      <point x="21" y="427" type="curve"/>
      <point x="324" y="427" type="line"/>
      <point x="325" y="441"/>
      <point x="326" y="456"/>
      <point x="326" y="473" type="curve"/>
      <point x="62" y="473" type="line"/>
      <point x="107" y="529"/>
      <point x="151" y="583"/>
      <point x="201" y="641" type="curve"/>
      <point x="201" y="337" type="line"/>
      <point x="210" y="336"/>
      <point x="222" y="336"/>
    </contour>
  </outline>
</glyph>
<glyph name="magicglyph" format="2">
  <outline>
    <contour>
      <point x="-13" y="1091" type="line"/>
      <point x="-13" y="-430" type="line"/>
      <point x="13" y="-430" type="line"/>
      <point x="13" y="1091" type="line"/>
    </contour>
  </outline>
</glyph>
<glyph name="one.numr" format="2">
  <advance width="255"/>
  <outline>
    <contour>
      <point x="50" y="355" type="curve"/>
      <point x="49" y="348"/>
      <point x="49" y="342"/>
      <point x="50" y="336" type="curve"/>
      <point x="73" y="336"/>
      <point x="93" y="338"/>
      <point x="136" y="338" type="curve" smooth="yes"/>
      <point x="181" y="338"/>
      <point x="199" y="336"/>
      <point x="218" y="336" type="curve"/>
      <point x="219" y="342"/>
      <point x="219" y="348"/>
      <point x="218" y="355" type="curve"/>
      <point x="164" y="360"/>
      <point x="163" y="360"/>
      <point x="163" y="411" type="curve" smooth="yes"/>
      <point x="163" y="615" type="line" smooth="yes"/>
      <point x="163" y="649"/>
      <point x="168" y="673"/>
      <point x="177" y="686" type="curve"/>
      <point x="175" y="691"/>
      <point x="173" y="695"/>
      <point x="169" y="699" type="curve"/>
      <point x="120" y="679"/>
      <point x="86" y="665"/>
      <point x="27" y="649" type="curve"/>
      <point x="28" y="642"/>
      <point x="29" y="637"/>
      <point x="32" y="630" type="curve"/>
      <point x="59" y="636"/>
      <point x="79" y="639"/>
      <point x="88" y="639" type="curve" smooth="yes"/>
      <point x="103" y="639"/>
      <point x="105" y="633"/>
      <point x="105" y="613" type="curve" smooth="yes"/>
      <point x="105" y="405" type="line" smooth="yes"/>
      <point x="105" y="363"/>
      <point x="104" y="360"/>
    </contour>
  </outline>
</glyph>
<glyph name="three.numr" format="2">
  <advance width="295"/>
  <outline>
    <contour>
      <point x="66" y="521" type="line"/>
      <point x="67" y="514"/>
      <point x="68" y="509"/>
      <point x="72" y="503" type="curve"/>
      <point x="84" y="506"/>
      <point x="94" y="508"/>
      <point x="109" y="508" type="curve" smooth="yes"/>
      <point x="178" y="508"/>
      <point x="211" y="467"/>
      <point x="211" y="426" type="curve" smooth="yes"/>
      <point x="211" y="380"/>
      <point x="171" y="350"/>
      <point x="120" y="350" type="curve" smooth="yes"/>
      <point x="111" y="350"/>
      <point x="96" y="351"/>
      <point x="83" y="354" type="curve"/>
      <point x="94" y="346" type="line"/>
      <point x="85" y="392"/>
      <point x="62" y="417"/>
      <point x="38" y="417" type="curve" smooth="yes"/>
      <point x="21" y="417"/>
      <point x="9" y="405"/>
      <point x="9" y="387" type="curve" smooth="yes"/>
      <point x="9" y="352"/>
      <point x="59" y="329"/>
      <point x="119" y="329" type="curve" smooth="yes"/>
      <point x="191" y="329"/>
      <point x="269" y="362"/>
      <point x="269" y="442" type="curve" smooth="yes"/>
      <point x="269" y="499"/>
      <point x="232" y="534"/>
      <point x="153" y="543" type="curve"/>
    </contour>
    <contour>
      <point x="152" y="532" type="line"/>
      <point x="229" y="557"/>
      <point x="252" y="590"/>
      <point x="252" y="624" type="curve" smooth="yes"/>
      <point x="252" y="662"/>
      <point x="223" y="699"/>
      <point x="150" y="699" type="curve" smooth="yes"/>
      <point x="105" y="699"/>
      <point x="59" y="685"/>
      <point x="22" y="646" type="curve"/>
      <point x="25" y="640"/>
      <point x="27" y="636"/>
      <point x="33" y="631" type="curve"/>
      <point x="56" y="649"/>
      <point x="88" y="660"/>
      <point x="120" y="660" type="curve" smooth="yes"/>
      <point x="172" y="660"/>
      <point x="193" y="633"/>
      <point x="193" y="606" type="curve" smooth="yes"/>
      <point x="193" y="573"/>
      <point x="159" y="542"/>
      <point x="66" y="521" type="curve"/>
    </contour>
  </outline>
</glyph>
<glyph name="zero.numr" format="2">
  <advance width="359"/>
  <outline>
    <contour>
      <point x="328" y="517" type="curve" smooth="yes"/>
      <point x="328" y="613"/>
      <point x="288" y="699"/>
      <point x="183" y="699" type="curve" smooth="yes"/>
      <point x="75" y="699"/>
      <point x="31" y="609"/>
      <point x="31" y="511" type="curve" smooth="yes"/>
      <point x="31" y="408"/>
      <point x="82" y="329"/>
      <point x="178" y="329" type="curve" smooth="yes"/>
      <point x="277" y="329"/>
      <point x="328" y="408"/>
    </contour>
    <contour>
      <point x="178" y="676" type="curve" smooth="yes"/>
      <point x="247" y="676"/>
      <point x="269" y="591"/>
      <point x="269" y="508" type="curve" smooth="yes"/>
      <point x="269" y="424"/>
      <point x="247" y="352"/>
      <point x="182" y="352" type="curve" smooth="yes"/>
      <point x="113" y="352"/>
      <point x="90" y="440"/>
      <point x="90" y="521" type="curve" smooth="yes"/>
      <point x="90" y="604"/>
      <point x="113" y="676"/>
    </contour>
  </outline>
</glyph>
